<svg xmlns="http://www.w3.org/2000/svg" xmlns:xlink="http://www.w3.org/1999/xlink" viewBox="0 0 266.7159 283.2565"><defs><style>.cls-1{isolation:isolate;}.cls-10,.cls-11,.cls-12,.cls-13,.cls-14,.cls-15,.cls-16,.cls-17,.cls-18,.cls-19,.cls-2,.cls-20,.cls-21,.cls-22,.cls-23,.cls-24,.cls-25,.cls-26,.cls-27,.cls-28,.cls-29,.cls-3,.cls-30,.cls-31,.cls-32,.cls-33,.cls-34,.cls-35,.cls-36,.cls-37,.cls-38,.cls-39,.cls-4,.cls-40,.cls-41,.cls-42,.cls-43,.cls-44,.cls-45,.cls-46,.cls-47,.cls-48,.cls-49,.cls-5,.cls-50,.cls-51,.cls-52,.cls-53,.cls-54,.cls-55,.cls-56,.cls-57,.cls-58,.cls-59,.cls-6,.cls-60,.cls-61,.cls-62,.cls-63,.cls-64,.cls-65,.cls-66,.cls-67,.cls-68,.cls-69,.cls-7,.cls-70,.cls-71,.cls-8,.cls-9{mix-blend-mode:screen;}.cls-2{fill:url(#radial-gradient);}.cls-3{fill:url(#radial-gradient-2);}.cls-4{fill:url(#radial-gradient-3);}.cls-5{fill:url(#radial-gradient-4);}.cls-6{fill:url(#radial-gradient-5);}.cls-7{fill:url(#radial-gradient-6);}.cls-8{fill:url(#radial-gradient-7);}.cls-9{fill:url(#radial-gradient-8);}.cls-10{fill:url(#radial-gradient-9);}.cls-11{fill:url(#radial-gradient-10);}.cls-12{fill:url(#radial-gradient-11);}.cls-13{fill:url(#radial-gradient-12);}.cls-14{fill:url(#radial-gradient-13);}.cls-15{fill:url(#radial-gradient-14);}.cls-16{fill:url(#radial-gradient-15);}.cls-17{fill:url(#radial-gradient-16);}.cls-18{fill:url(#radial-gradient-17);}.cls-19{fill:url(#radial-gradient-18);}.cls-20{fill:url(#radial-gradient-19);}.cls-21{fill:url(#radial-gradient-20);}.cls-22{fill:url(#radial-gradient-21);}.cls-23{fill:url(#radial-gradient-22);}.cls-24{fill:url(#radial-gradient-23);}.cls-25{fill:url(#radial-gradient-24);}.cls-26{fill:url(#radial-gradient-25);}.cls-27{fill:url(#radial-gradient-26);}.cls-28{fill:url(#radial-gradient-27);}.cls-29{fill:url(#radial-gradient-28);}.cls-30{fill:url(#radial-gradient-29);}.cls-31{fill:url(#radial-gradient-30);}.cls-32{fill:url(#radial-gradient-31);}.cls-33{fill:url(#radial-gradient-32);}.cls-34{fill:url(#radial-gradient-33);}.cls-35{fill:url(#radial-gradient-34);}.cls-36{fill:url(#radial-gradient-35);}.cls-37{fill:url(#radial-gradient-36);}.cls-38{fill:url(#radial-gradient-37);}.cls-39{fill:url(#radial-gradient-38);}.cls-40{fill:url(#radial-gradient-39);}.cls-41{fill:url(#radial-gradient-40);}.cls-42{fill:url(#radial-gradient-41);}.cls-43{fill:url(#radial-gradient-42);}.cls-44{fill:url(#radial-gradient-43);}.cls-45{fill:url(#radial-gradient-44);}.cls-46{fill:url(#radial-gradient-45);}.cls-47{fill:url(#radial-gradient-46);}.cls-48{fill:url(#radial-gradient-47);}.cls-49{fill:url(#radial-gradient-48);}.cls-50{fill:url(#radial-gradient-49);}.cls-51{fill:url(#radial-gradient-50);}.cls-52{fill:url(#radial-gradient-51);}.cls-53{fill:url(#radial-gradient-52);}.cls-54{fill:url(#radial-gradient-53);}.cls-55{fill:url(#radial-gradient-54);}.cls-56{fill:url(#radial-gradient-55);}.cls-57{fill:url(#radial-gradient-56);}.cls-58{fill:url(#radial-gradient-57);}.cls-59{fill:url(#radial-gradient-58);}.cls-60{fill:url(#radial-gradient-59);}.cls-61{fill:url(#radial-gradient-60);}.cls-62{fill:url(#radial-gradient-61);}.cls-63{fill:url(#radial-gradient-62);}.cls-64{fill:url(#radial-gradient-63);}.cls-65{fill:url(#radial-gradient-64);}.cls-66{fill:url(#radial-gradient-65);}.cls-67{fill:url(#radial-gradient-66);}.cls-68{fill:url(#radial-gradient-67);}.cls-69{fill:url(#radial-gradient-68);}.cls-70{fill:url(#radial-gradient-69);}.cls-71{fill:url(#radial-gradient-70);}</style><radialGradient id="radial-gradient" cx="131.6606" cy="-2.2448" r="276.8108" gradientUnits="userSpaceOnUse"><stop offset="0" stop-color="#f20074"/><stop offset="0.1407" stop-color="#ed0376"/><stop offset="0.3069" stop-color="#df0b7d"/><stop offset="0.486" stop-color="#c71887"/><stop offset="0.6741" stop-color="#a62a96"/><stop offset="0.8675" stop-color="#7b42a9"/><stop offset="0.8985" stop-color="#7446ac"/></radialGradient><radialGradient id="radial-gradient-2" cx="135.3038" cy="112.0176" r="0.3416" xlink:href="#radial-gradient"/><radialGradient id="radial-gradient-3" cx="135.1357" cy="112.5498" r="0.3027" xlink:href="#radial-gradient"/><radialGradient id="radial-gradient-4" cx="135.5066" cy="111.2884" r="0.5026" xlink:href="#radial-gradient"/><radialGradient id="radial-gradient-5" cx="139.7481" cy="82.4733" r="1.166" xlink:href="#radial-gradient"/><radialGradient id="radial-gradient-6" cx="134.7951" cy="113.6439" r="0.0982" xlink:href="#radial-gradient"/><radialGradient id="radial-gradient-7" cx="135.7152" cy="110.5443" r="0.6167" xlink:href="#radial-gradient"/><radialGradient id="radial-gradient-8" cx="134.9905" cy="112.9747" r="0.3049" xlink:href="#radial-gradient"/><radialGradient id="radial-gradient-9" cx="134.8748" cy="113.3818" r="0.1704" xlink:href="#radial-gradient"/><radialGradient id="radial-gradient-10" cx="136.2084" cy="108.8577" r="0.5866" xlink:href="#radial-gradient"/><radialGradient id="radial-gradient-11" cx="137.8752" cy="101.6177" r="0.8575" xlink:href="#radial-gradient"/><radialGradient id="radial-gradient-12" cx="137.3152" cy="104.2599" r="0.8946" xlink:href="#radial-gradient"/><radialGradient id="radial-gradient-13" cx="135.9616" cy="109.7672" r="0.5189" xlink:href="#radial-gradient"/><radialGradient id="radial-gradient-14" cx="137.5884" cy="102.8981" r="1.0813" xlink:href="#radial-gradient"/><radialGradient id="radial-gradient-15" cx="142.8816" cy="111.1879" r="7.6663" xlink:href="#radial-gradient"/><radialGradient id="radial-gradient-16" cx="136.4822" cy="107.704" r="0.8359" xlink:href="#radial-gradient"/><radialGradient id="radial-gradient-17" cx="136.7516" cy="106.7047" r="0.759" xlink:href="#radial-gradient"/><radialGradient id="radial-gradient-18" cx="137.0297" cy="105.6127" r="0.687" xlink:href="#radial-gradient"/><radialGradient id="radial-gradient-19" cx="192.8546" cy="174.8983" r="0.5547" xlink:href="#radial-gradient"/><radialGradient id="radial-gradient-20" cx="191.9461" cy="175.1776" r="0.2829" xlink:href="#radial-gradient"/><radialGradient id="radial-gradient-21" cx="194.3073" cy="174.5453" r="0.8069" xlink:href="#radial-gradient"/><radialGradient id="radial-gradient-22" cx="191.5979" cy="175.3361" r="0.0277" xlink:href="#radial-gradient"/><radialGradient id="radial-gradient-23" cx="262.4717" cy="200.7021" r="1.3945" xlink:href="#radial-gradient"/><radialGradient id="radial-gradient-24" cx="221.52" cy="172.9451" r="48.5992" xlink:href="#radial-gradient"/><radialGradient id="radial-gradient-25" cx="263.6453" cy="202.7598" r="1.0974" xlink:href="#radial-gradient"/><radialGradient id="radial-gradient-26" cx="196.2503" cy="174.1675" r="1.0255" xlink:href="#radial-gradient"/><radialGradient id="radial-gradient-27" cx="191.6089" cy="175.2513" r="0.0506" xlink:href="#radial-gradient"/><radialGradient id="radial-gradient-28" cx="134.7593" cy="113.7714" r="0.0447" xlink:href="#radial-gradient"/><radialGradient id="radial-gradient-29" cx="191.7276" cy="174.95" r="0.1736" xlink:href="#radial-gradient"/><radialGradient id="radial-gradient-30" cx="192.0421" cy="173.9435" r="0.7979" xlink:href="#radial-gradient"/><radialGradient id="radial-gradient-31" cx="163.8057" cy="110.6638" r="62.5246" xlink:href="#radial-gradient"/><radialGradient id="radial-gradient-32" cx="201.4878" cy="173.502" r="1.36" xlink:href="#radial-gradient"/><radialGradient id="radial-gradient-33" cx="198.6607" cy="173.8054" r="1.2061" xlink:href="#radial-gradient"/><radialGradient id="radial-gradient-34" cx="207.3097" cy="173.2528" r="0.7791" xlink:href="#radial-gradient"/><radialGradient id="radial-gradient-35" cx="204.6793" cy="173.3018" r="1.486" xlink:href="#radial-gradient"/><radialGradient id="radial-gradient-36" cx="139.6662" cy="86.0944" r="1.5553" xlink:href="#radial-gradient"/><radialGradient id="radial-gradient-37" cx="60.5088" cy="0.2382" r="0.4568" xlink:href="#radial-gradient"/><radialGradient id="radial-gradient-38" cx="61.6572" cy="0.3347" r="0.4602" xlink:href="#radial-gradient"/><radialGradient id="radial-gradient-39" cx="57.4868" cy="0.0069" r="2.156" xlink:href="#radial-gradient"/><radialGradient id="radial-gradient-40" cx="54.6606" cy="0.0012" r="0.3198" xlink:href="#radial-gradient"/><radialGradient id="radial-gradient-41" cx="138.1389" cy="100.2" r="0.8914" xlink:href="#radial-gradient"/><radialGradient id="radial-gradient-42" cx="69.3761" cy="1.3616" r="0.6105" xlink:href="#radial-gradient"/><radialGradient id="radial-gradient-43" cx="62.8553" cy="0.4473" r="0.5044" xlink:href="#radial-gradient"/><radialGradient id="radial-gradient-44" cx="66.0501" cy="0.573" r="2.4087" xlink:href="#radial-gradient"/><radialGradient id="radial-gradient-45" cx="49.7193" cy="0.1503" r="0.0768" xlink:href="#radial-gradient"/><radialGradient id="radial-gradient-46" cx="70.8092" cy="1.6402" r="0.576" xlink:href="#radial-gradient"/><radialGradient id="radial-gradient-47" cx="49.4984" cy="0.1706" r="0.0614" xlink:href="#radial-gradient"/><radialGradient id="radial-gradient-48" cx="49.9985" cy="0.1273" r="0.0983" xlink:href="#radial-gradient"/><radialGradient id="radial-gradient-49" cx="53.1399" cy="0.0032" r="0.2652" xlink:href="#radial-gradient"/><radialGradient id="radial-gradient-50" cx="49.3635" cy="0.1861" r="0.0348" xlink:href="#radial-gradient"/><radialGradient id="radial-gradient-51" cx="52.4492" cy="0.0127" r="0.2662" xlink:href="#radial-gradient"/><radialGradient id="radial-gradient-52" cx="50.3592" cy="0.1008" r="0.1315" xlink:href="#radial-gradient"/><radialGradient id="radial-gradient-53" cx="51.3497" cy="0.0275" r="0.6884" xlink:href="#radial-gradient"/><radialGradient id="radial-gradient-54" cx="53.866" cy="0.0008" r="0.284" xlink:href="#radial-gradient"/><radialGradient id="radial-gradient-55" cx="139.2725" cy="91.7801" r="1.4332" xlink:href="#radial-gradient"/><radialGradient id="radial-gradient-56" cx="139.0878" cy="93.657" r="1.1621" xlink:href="#radial-gradient"/><radialGradient id="radial-gradient-57" cx="139.4368" cy="90.1208" r="1.1275" xlink:href="#radial-gradient"/><radialGradient id="radial-gradient-58" cx="139.5642" cy="88.3331" r="1.1112" xlink:href="#radial-gradient"/><radialGradient id="radial-gradient-59" cx="139.7233" cy="84.3223" r="1.5239" xlink:href="#radial-gradient"/><radialGradient id="radial-gradient-60" cx="72.2511" cy="1.935" r="0.5897" xlink:href="#radial-gradient"/><radialGradient id="radial-gradient-61" cx="138.6456" cy="96.9785" r="1.167" xlink:href="#radial-gradient"/><radialGradient id="radial-gradient-62" cx="138.8786" cy="95.4446" r="0.9746" xlink:href="#radial-gradient"/><radialGradient id="radial-gradient-63" cx="138.4094" cy="98.4296" r="1.2521" xlink:href="#radial-gradient"/><radialGradient id="radial-gradient-64" cx="139.7273" cy="80.4111" r="1.3121" xlink:href="#radial-gradient"/><radialGradient id="radial-gradient-65" cx="73.728" cy="2.2529" r="0.6433" xlink:href="#radial-gradient"/><radialGradient id="radial-gradient-66" cx="139.1449" cy="71.6602" r="1.7368" xlink:href="#radial-gradient"/><radialGradient id="radial-gradient-67" cx="106.3714" cy="1.7975" r="94.2209" xlink:href="#radial-gradient"/><radialGradient id="radial-gradient-68" cx="139.6608" cy="78.133" r="1.6727" xlink:href="#radial-gradient"/><radialGradient id="radial-gradient-69" cx="139.3803" cy="74.1939" r="1.2487" xlink:href="#radial-gradient"/><radialGradient id="radial-gradient-70" cx="139.5441" cy="76.2188" r="1.3301" xlink:href="#radial-gradient"/></defs><g class="cls-1"><g id="Layer_2" data-name="Layer 2"><g id="BACKGROUND2"><path class="cls-2" d="M49.2611.2008s40.66-4.6915,71.9368,31.2769S134.75,113.8215,134.75,113.8215s34.927-11.1889,52.9112,12.2687,3.91,49.2611,3.91,49.2611,49.2611-14.0746,73.5007,30.495-227.5393,77.41-227.5393,77.41L0,220.7028Z"/><path class="cls-3" d="M135.3665,112.0206c-.043.1339-.0846.2621-.1239.3816Q135.3019,112.2222,135.3665,112.0206Z"/><path class="cls-4" d="M135.1931,112.5525q-.06.1817-.1134.3379C135.1152,112.7858,135.1527,112.674,135.1931,112.5525Z"/><path class="cls-5" d="M135.5958,111.2928c-.0612.1986-.12.3855-.1761.562C135.4759,111.6782,135.5344,111.4918,135.5958,111.2928Z"/><path class="cls-6" d="M139.7467,83.8036q.0051-.6556.0011-1.32Q139.752,83.148,139.7467,83.8036Z"/><path class="cls-7" d="M134.8154,113.6447l-.04.1093Z"/><path class="cls-8" d="M135.8206,110.55c-.0717.2416-.1416.4737-.2082.69C135.679,111.0233,135.7489,110.7914,135.8206,110.55Z"/><path class="cls-9" d="M135.05,112.9774c-.0434.1273-.083.241-.1178.34C134.9674,113.218,135.0065,113.1055,135.05,112.9774Z"/><path class="cls-10" d="M134.9091,113.3833c-.0251.0709-.0484.1363-.0678.19C134.8609,113.519,134.8836,113.4553,134.9091,113.3833Z"/><path class="cls-11" d="M136.3009,108.8629c-.0618.2258-.1229.446-.1827.6577C136.1781,109.3087,136.239,109.089,136.3009,108.8629Z"/><path class="cls-12" d="M137.9712,101.6253q-.0939.4914-.19.966Q137.8773,102.1161,137.9712,101.6253Z"/><path class="cls-13" d="M137.43,104.2679q-.1131.5151-.2264,1.0063Q137.3166,104.7828,137.43,104.2679Z"/><path class="cls-14" d="M136.0469,109.7718q-.0861.301-.1685.5813C135.9334,110.166,135.9894,109.9728,136.0469,109.7718Z"/><path class="cls-15" d="M137.7183,102.9077c-.0849.4152-.1706.8221-.2566,1.2172C137.5477,103.73,137.6333,103.323,137.7183,102.9077Z"/><path class="cls-16" d="M134.75,113.8215a68.4754,68.4754,0,0,1,16.4727-2.6129A68.4754,68.4754,0,0,0,134.75,113.8215Z"/><path class="cls-17" d="M136.6081,107.7114q-.1263.4868-.2486.938C136.4411,108.348,136.5239,108.0361,136.6081,107.7114Z"/><path class="cls-18" d="M136.86,106.7114q-.1081.438-.2148.8524Q136.7521,107.15,136.86,106.7114Z"/><path class="cls-19" d="M137.123,105.6188q-.0924.3941-.1843.7722Q137.0306,106.0132,137.123,105.6188Z"/><path class="cls-20" d="M193.4292,174.9c-.4613.1013-.841.1908-1.1348.2632C192.5886,175.0912,192.968,175.0016,193.4292,174.9Z"/><path class="cls-21" d="M192.2332,175.1787c-.2746.0682-.4647.1185-.567.1464C191.77,175.297,191.9608,175.2463,192.2332,175.1787Z"/><path class="cls-22" d="M195.1608,174.548c-.6423.1214-1.2059.2374-1.6856.3423C193.9553,174.7855,194.5185,174.6692,195.1608,174.548Z"/><path class="cls-23" d="M191.6256,175.3362l-.0547.0151Z"/><path class="cls-24" d="M261.9975,200.714q.4854.7391.9606,1.503C262.6418,201.7064,262.3208,201.2075,261.9975,200.714Z"/><path class="cls-25" d="M191.0872,204.9505c18.066,11.7094,46.1709,4.3444,69.7548-5.9446q.5411.7741,1.0706,1.5777c-15.36-23.342-38.2531-27.57-53.715-27.33C188.6419,180.5907,170.8348,191.8239,191.0872,204.9505Z"/><path class="cls-26" d="M263.2927,202.7692c.2395.393.4789.786.7142,1.1893C263.7719,203.5545,263.5319,203.163,263.2927,202.7692Z"/><path class="cls-27" d="M197.3574,174.1705c-.804.1254-1.5348.2526-2.1864.3756C195.8226,174.4233,196.5538,174.2957,197.3574,174.1705Z"/><path class="cls-28" d="M191.6236,175.2517l-.029.0554Z"/><path class="cls-29" d="M134.75,113.8215l.0186-.05Z"/><path class="cls-30" d="M191.7763,174.9515q-.0554.1107-.0961.19C191.7078,175.0884,191.7386,175.0268,191.7763,174.9515Z"/><path class="cls-31" d="M192.2525,173.95c-.1647.3615-.3049.6542-.4155.8788C191.9473,174.606,192.0872,174.3121,192.2525,173.95Z"/><path class="cls-32" d="M147.606,152.1042c27.0451,14.5627,41.5071,8.4563,49.1668-.8037a52.2865,52.2865,0,0,1-4.5007,22.6067c2.6056-5.7208,10.8662-27.63-4.6108-47.817-9.8988-12.9114-24.9225-15.32-36.4378-14.8816C132.92,122.0963,119.9162,137.1943,147.606,152.1042Z"/><path class="cls-33" d="M203.0094,173.5044c-1.0616.0864-2.0651.189-3.0049.3018C200.9441,173.6935,201.9481,173.5906,203.0094,173.5044Z"/><path class="cls-34" d="M199.9879,173.8082c-.9413.1131-1.817.2355-2.6211.3608C198.1708,174.0438,199.047,173.9212,199.9879,173.8082Z"/><path class="cls-35" d="M208.1973,173.2532q-.8941.0138-1.7529.0473Q207.3039,173.2679,208.1973,173.2532Z"/><path class="cls-36" d="M206.3629,173.3034c-1.16.0451-2.27.1133-3.3249.1987C204.0923,173.4169,205.2032,173.3484,206.3629,173.3034Z"/><path class="cls-37" d="M139.7036,86.1083q-.0286.89-.0739,1.76Q139.6735,86.9972,139.7036,86.1083Z"/><path class="cls-38" d="M60.0075.2388q.4983.0385,1.0155.0847Q60.5061.2773,60.0075.2388Z"/><path class="cls-39" d="M61.1546.3355q.5007.0456,1.0182.0989Q61.6553.3812,61.1546.3355Z"/><path class="cls-40" d="M55.0989.0087C56.5.03,58.1236.0945,59.9363.2332,58.1234.0947,56.5.03,55.0989.0087Z"/><path class="cls-41" d="M54.3049.0012q.35.0014.72.0065Q54.6546.0026,54.3049.0012Z"/><path class="cls-42" d="M138.2311,100.2079q-.09.51-.1821,1.0049Q138.1414,100.7184,138.2311,100.2079Z"/><path class="cls-43" d="M68.74,1.3635q.6369.1144,1.2888.2416Q69.3772,1.4782,68.74,1.3635Z"/><path class="cls-44" d="M62.3076.4483q.546.0571,1.11.1234Q62.8534.5053,62.3076.4483Z"/><path class="cls-45" d="M63.4813.5791c1.6318.1934,3.3721.4461,5.2039.7743C66.853,1.0253,65.1133.7723,63.4813.5791Z"/><path class="cls-46" d="M49.635.1648c.0515-.0045.1087-.0093.1707-.0144C49.7431.1555,49.6869.16,49.635.1648Z"/><path class="cls-47" d="M70.2157,1.6421q.5953.1173,1.2023.2455Q70.8111,1.7594,70.2157,1.6421Z"/><path class="cls-48" d="M49.4312.1833l.1361-.0126Z"/><path class="cls-49" d="M49.89.1437c.0673-.0052.1416-.0108.2192-.0163C50.0313.133,49.958.1384,49.89.1437Z"/><path class="cls-50" d="M52.845.0113q.2885-.0052.5974-.0081Q53.1331.0061,52.845.0113Z"/><path class="cls-51" d="M49.3256.1939l.0768-.0078Z"/><path class="cls-52" d="M52.1534.0273c.1909-.0056.3911-.0105.5992-.0145C52.5445.0169,52.3443.0217,52.1534.0273Z"/><path class="cls-53" d="M50.2141.12c.0912-.0063.19-.0127.2939-.0191C50.4042.1074,50.3054.1137,50.2141.12Z"/><path class="cls-54" d="M50.5869.096c.4219-.0252.9387-.05,1.5453-.068C51.5255.0461,51.0086.0707,50.5869.096Z"/><path class="cls-55" d="M54.19.001Q53.86,0,53.55.0025,53.86,0,54.19.001Z"/><path class="cls-56" d="M139.3534,91.7929q-.0744.8208-.16,1.62Q139.279,92.6145,139.3534,91.7929Z"/><path class="cls-57" d="M139.165,93.6674q-.0729.6647-.1525,1.3133Q139.0922,94.3324,139.165,93.6674Z"/><path class="cls-58" d="M139.4887,90.1309q-.0476.6439-.1025,1.2753Q139.4409,90.7744,139.4887,90.1309Z"/><path class="cls-59" d="M139.6033,88.343q-.0351.6339-.0773,1.2573Q139.5686,88.9772,139.6033,88.343Z"/><path class="cls-60" d="M139.7423,84.3359c-.0078.58-.02,1.1559-.0376,1.7249Q139.7317,85.2073,139.7423,84.3359Z"/><path class="cls-61" d="M71.6508,1.9371q.6025.129,1.216.2692Q72.2534,2.0662,71.6508,1.9371Z"/><path class="cls-62" d="M138.7455,96.9889q-.0957.6686-.1972,1.3173Q138.65,97.6584,138.7455,96.9889Z"/><path class="cls-63" d="M138.9528,95.4533q-.0711.5568-.1466,1.1008Q138.8817,96.01,138.9528,95.4533Z"/><path class="cls-64" d="M138.5279,98.4408q-.114.72-.2341,1.4125C138.3736,99.3909,138.4519,98.9211,138.5279,98.4408Z"/><path class="cls-65" d="M139.7121,80.4228q.0213.7473.0309,1.4852Q139.7339,81.17,139.7121,80.4228Z"/><path class="cls-66" d="M73.0819,2.2554q.6487.15,1.3089.3129Q73.7308,2.4054,73.0819,2.2554Z"/><path class="cls-67" d="M139.0323,71.6757c.085.658.1594,1.3117.2282,1.9627C139.1917,72.9873,139.1173,72.3337,139.0323,71.6757Z"/><path class="cls-68" d="M79.1387,3.878c.0683,41.0373,4.66,105.0929,33.0135,100.0624,17.7574-3.15,24.719-17.2157,26.8794-32.2708A74.8644,74.8644,0,0,0,121.198,31.4777,89.9885,89.9885,0,0,0,74.5321,2.6028Q76.7772,3.1608,79.1387,3.878Z"/><path class="cls-69" d="M139.62,78.148q.0513.9536.082,1.8931Q139.6714,79.1018,139.62,78.148Z"/><path class="cls-70" d="M139.3168,74.2051q.07.7091.1286,1.4121Q139.3874,74.9143,139.3168,74.2051Z"/><path class="cls-71" d="M139.4945,76.2307q.0572.7565.1,1.5048Q139.5512,76.9869,139.4945,76.2307Z"/></g></g></g></svg>