<svg xmlns="http://www.w3.org/2000/svg" xmlns:xlink="http://www.w3.org/1999/xlink" viewBox="0 0 266.7158 283.2565"><defs><style>.cls-1{isolation:isolate;}.cls-10,.cls-11,.cls-12,.cls-13,.cls-14,.cls-15,.cls-16,.cls-17,.cls-18,.cls-19,.cls-2,.cls-20,.cls-21,.cls-22,.cls-23,.cls-24,.cls-25,.cls-26,.cls-27,.cls-28,.cls-29,.cls-3,.cls-30,.cls-31,.cls-32,.cls-33,.cls-34,.cls-35,.cls-36,.cls-37,.cls-38,.cls-39,.cls-4,.cls-40,.cls-41,.cls-42,.cls-43,.cls-44,.cls-45,.cls-46,.cls-47,.cls-48,.cls-49,.cls-5,.cls-50,.cls-51,.cls-52,.cls-53,.cls-54,.cls-55,.cls-56,.cls-57,.cls-58,.cls-59,.cls-6,.cls-60,.cls-61,.cls-62,.cls-63,.cls-64,.cls-65,.cls-66,.cls-67,.cls-68,.cls-69,.cls-7,.cls-70,.cls-71,.cls-8,.cls-9{mix-blend-mode:screen;}.cls-2{fill:url(#radial-gradient);}.cls-3{fill:url(#radial-gradient-2);}.cls-4{fill:url(#radial-gradient-3);}.cls-5{fill:url(#radial-gradient-4);}.cls-6{fill:url(#radial-gradient-5);}.cls-7{fill:url(#radial-gradient-6);}.cls-8{fill:url(#radial-gradient-7);}.cls-9{fill:url(#radial-gradient-8);}.cls-10{fill:url(#radial-gradient-9);}.cls-11{fill:url(#radial-gradient-10);}.cls-12{fill:url(#radial-gradient-11);}.cls-13{fill:url(#radial-gradient-12);}.cls-14{fill:url(#radial-gradient-13);}.cls-15{fill:url(#radial-gradient-14);}.cls-16{fill:url(#radial-gradient-15);}.cls-17{fill:url(#radial-gradient-16);}.cls-18{fill:url(#radial-gradient-17);}.cls-19{fill:url(#radial-gradient-18);}.cls-20{fill:url(#radial-gradient-19);}.cls-21{fill:url(#radial-gradient-20);}.cls-22{fill:url(#radial-gradient-21);}.cls-23{fill:url(#radial-gradient-22);}.cls-24{fill:url(#radial-gradient-23);}.cls-25{fill:url(#radial-gradient-24);}.cls-26{fill:url(#radial-gradient-25);}.cls-27{fill:url(#radial-gradient-26);}.cls-28{fill:url(#radial-gradient-27);}.cls-29{fill:url(#radial-gradient-28);}.cls-30{fill:url(#radial-gradient-29);}.cls-31{fill:url(#radial-gradient-30);}.cls-32{fill:url(#radial-gradient-31);}.cls-33{fill:url(#radial-gradient-32);}.cls-34{fill:url(#radial-gradient-33);}.cls-35{fill:url(#radial-gradient-34);}.cls-36{fill:url(#radial-gradient-35);}.cls-37{fill:url(#radial-gradient-36);}.cls-38{fill:url(#radial-gradient-37);}.cls-39{fill:url(#radial-gradient-38);}.cls-40{fill:url(#radial-gradient-39);}.cls-41{fill:url(#radial-gradient-40);}.cls-42{fill:url(#radial-gradient-41);}.cls-43{fill:url(#radial-gradient-42);}.cls-44{fill:url(#radial-gradient-43);}.cls-45{fill:url(#radial-gradient-44);}.cls-46{fill:url(#radial-gradient-45);}.cls-47{fill:url(#radial-gradient-46);}.cls-48{fill:url(#radial-gradient-47);}.cls-49{fill:url(#radial-gradient-48);}.cls-50{fill:url(#radial-gradient-49);}.cls-51{fill:url(#radial-gradient-50);}.cls-52{fill:url(#radial-gradient-51);}.cls-53{fill:url(#radial-gradient-52);}.cls-54{fill:url(#radial-gradient-53);}.cls-55{fill:url(#radial-gradient-54);}.cls-56{fill:url(#radial-gradient-55);}.cls-57{fill:url(#radial-gradient-56);}.cls-58{fill:url(#radial-gradient-57);}.cls-59{fill:url(#radial-gradient-58);}.cls-60{fill:url(#radial-gradient-59);}.cls-61{fill:url(#radial-gradient-60);}.cls-62{fill:url(#radial-gradient-61);}.cls-63{fill:url(#radial-gradient-62);}.cls-64{fill:url(#radial-gradient-63);}.cls-65{fill:url(#radial-gradient-64);}.cls-66{fill:url(#radial-gradient-65);}.cls-67{fill:url(#radial-gradient-66);}.cls-68{fill:url(#radial-gradient-67);}.cls-69{fill:url(#radial-gradient-68);}.cls-70{fill:url(#radial-gradient-69);}.cls-71{fill:url(#radial-gradient-70);}</style><radialGradient id="radial-gradient" cx="-1347.8054" cy="-2.2448" r="276.8108" gradientTransform="matrix(-1, 0, 0, 1, -1212.7501, 0)" gradientUnits="userSpaceOnUse"><stop offset="0" stop-color="#f20074"/><stop offset="0.1407" stop-color="#ed0376"/><stop offset="0.3069" stop-color="#df0b7d"/><stop offset="0.486" stop-color="#c71887"/><stop offset="0.6741" stop-color="#a62a96"/><stop offset="0.8675" stop-color="#7b42a9"/><stop offset="0.8985" stop-color="#7446ac"/></radialGradient><radialGradient id="radial-gradient-2" cx="-1344.1622" cy="112.0176" r="0.3416" xlink:href="#radial-gradient"/><radialGradient id="radial-gradient-3" cx="-1344.3303" cy="112.5498" r="0.3027" xlink:href="#radial-gradient"/><radialGradient id="radial-gradient-4" cx="-1343.9593" cy="111.2884" r="0.5026" xlink:href="#radial-gradient"/><radialGradient id="radial-gradient-5" cx="-1339.7178" cy="82.4733" r="1.166" xlink:href="#radial-gradient"/><radialGradient id="radial-gradient-6" cx="-1344.6709" cy="113.6439" r="0.0982" xlink:href="#radial-gradient"/><radialGradient id="radial-gradient-7" cx="-1343.7508" cy="110.5443" r="0.6167" xlink:href="#radial-gradient"/><radialGradient id="radial-gradient-8" cx="-1344.4754" cy="112.9747" r="0.3049" xlink:href="#radial-gradient"/><radialGradient id="radial-gradient-9" cx="-1344.5912" cy="113.3818" r="0.1704" xlink:href="#radial-gradient"/><radialGradient id="radial-gradient-10" cx="-1343.2576" cy="108.8577" r="0.5866" xlink:href="#radial-gradient"/><radialGradient id="radial-gradient-11" cx="-1341.5907" cy="101.6177" r="0.8575" xlink:href="#radial-gradient"/><radialGradient id="radial-gradient-12" cx="-1342.1508" cy="104.2599" r="0.8946" xlink:href="#radial-gradient"/><radialGradient id="radial-gradient-13" cx="-1343.5044" cy="109.7672" r="0.5189" xlink:href="#radial-gradient"/><radialGradient id="radial-gradient-14" cx="-1341.8777" cy="102.8981" r="1.0813" xlink:href="#radial-gradient"/><radialGradient id="radial-gradient-15" cx="-1336.5844" cy="111.1879" r="7.6663" xlink:href="#radial-gradient"/><radialGradient id="radial-gradient-16" cx="-1342.9838" cy="107.704" r="0.8359" xlink:href="#radial-gradient"/><radialGradient id="radial-gradient-17" cx="-1342.7143" cy="106.7047" r="0.759" xlink:href="#radial-gradient"/><radialGradient id="radial-gradient-18" cx="-1342.4363" cy="105.6127" r="0.687" xlink:href="#radial-gradient"/><radialGradient id="radial-gradient-19" cx="-1286.6114" cy="174.8983" r="0.5547" xlink:href="#radial-gradient"/><radialGradient id="radial-gradient-20" cx="-1287.5199" cy="175.1776" r="0.2829" xlink:href="#radial-gradient"/><radialGradient id="radial-gradient-21" cx="-1285.1586" cy="174.5453" r="0.8069" xlink:href="#radial-gradient"/><radialGradient id="radial-gradient-22" cx="-1287.8681" cy="175.3361" r="0.0277" xlink:href="#radial-gradient"/><radialGradient id="radial-gradient-23" cx="-1216.9943" cy="200.7021" r="1.3945" xlink:href="#radial-gradient"/><radialGradient id="radial-gradient-24" cx="-1257.946" cy="172.9451" r="48.5992" xlink:href="#radial-gradient"/><radialGradient id="radial-gradient-25" cx="-1215.8207" cy="202.7598" r="1.0974" xlink:href="#radial-gradient"/><radialGradient id="radial-gradient-26" cx="-1283.2157" cy="174.1675" r="1.0255" xlink:href="#radial-gradient"/><radialGradient id="radial-gradient-27" cx="-1287.8571" cy="175.2513" r="0.0506" xlink:href="#radial-gradient"/><radialGradient id="radial-gradient-28" cx="-1344.7067" cy="113.7714" r="0.0447" xlink:href="#radial-gradient"/><radialGradient id="radial-gradient-29" cx="-1287.7383" cy="174.95" r="0.1736" xlink:href="#radial-gradient"/><radialGradient id="radial-gradient-30" cx="-1287.4239" cy="173.9435" r="0.7979" xlink:href="#radial-gradient"/><radialGradient id="radial-gradient-31" cx="-1315.6602" cy="110.6638" r="62.5246" xlink:href="#radial-gradient"/><radialGradient id="radial-gradient-32" cx="-1277.9781" cy="173.502" r="1.3599" xlink:href="#radial-gradient"/><radialGradient id="radial-gradient-33" cx="-1280.8053" cy="173.8054" r="1.2061" xlink:href="#radial-gradient"/><radialGradient id="radial-gradient-34" cx="-1272.1563" cy="173.2528" r="0.7791" xlink:href="#radial-gradient"/><radialGradient id="radial-gradient-35" cx="-1274.7867" cy="173.3018" r="1.486" xlink:href="#radial-gradient"/><radialGradient id="radial-gradient-36" cx="-1339.7998" cy="86.0944" r="1.5553" xlink:href="#radial-gradient"/><radialGradient id="radial-gradient-37" cx="-1418.9571" cy="0.2382" r="0.4568" xlink:href="#radial-gradient"/><radialGradient id="radial-gradient-38" cx="-1417.8087" cy="0.3347" r="0.4602" xlink:href="#radial-gradient"/><radialGradient id="radial-gradient-39" cx="-1421.9792" cy="0.0069" r="2.156" xlink:href="#radial-gradient"/><radialGradient id="radial-gradient-40" cx="-1424.8054" cy="0.0012" r="0.3198" xlink:href="#radial-gradient"/><radialGradient id="radial-gradient-41" cx="-1341.3271" cy="100.2" r="0.8914" xlink:href="#radial-gradient"/><radialGradient id="radial-gradient-42" cx="-1410.0899" cy="1.3616" r="0.6105" xlink:href="#radial-gradient"/><radialGradient id="radial-gradient-43" cx="-1416.6106" cy="0.4473" r="0.5043" xlink:href="#radial-gradient"/><radialGradient id="radial-gradient-44" cx="-1413.4158" cy="0.573" r="2.4086" xlink:href="#radial-gradient"/><radialGradient id="radial-gradient-45" cx="-1429.7468" cy="0.1503" r="0.0768" xlink:href="#radial-gradient"/><radialGradient id="radial-gradient-46" cx="-1408.6568" cy="1.6402" r="0.576" xlink:href="#radial-gradient"/><radialGradient id="radial-gradient-47" cx="-1429.9675" cy="0.1706" r="0.0614" xlink:href="#radial-gradient"/><radialGradient id="radial-gradient-48" cx="-1429.4674" cy="0.1273" r="0.0983" xlink:href="#radial-gradient"/><radialGradient id="radial-gradient-49" cx="-1426.326" cy="0.0032" r="0.2652" xlink:href="#radial-gradient"/><radialGradient id="radial-gradient-50" cx="-1430.1025" cy="0.1861" r="0.0348" xlink:href="#radial-gradient"/><radialGradient id="radial-gradient-51" cx="-1427.0168" cy="0.0127" r="0.2663" xlink:href="#radial-gradient"/><radialGradient id="radial-gradient-52" cx="-1429.1067" cy="0.1009" r="0.1315" xlink:href="#radial-gradient"/><radialGradient id="radial-gradient-53" cx="-1428.1163" cy="0.0275" r="0.6884" xlink:href="#radial-gradient"/><radialGradient id="radial-gradient-54" cx="-1425.6" cy="0.0008" r="0.284" xlink:href="#radial-gradient"/><radialGradient id="radial-gradient-55" cx="-1340.1935" cy="91.7801" r="1.4332" xlink:href="#radial-gradient"/><radialGradient id="radial-gradient-56" cx="-1340.3782" cy="93.657" r="1.1621" xlink:href="#radial-gradient"/><radialGradient id="radial-gradient-57" cx="-1340.0292" cy="90.1208" r="1.1275" xlink:href="#radial-gradient"/><radialGradient id="radial-gradient-58" cx="-1339.9018" cy="88.3331" r="1.1112" xlink:href="#radial-gradient"/><radialGradient id="radial-gradient-59" cx="-1339.7427" cy="84.3223" r="1.5239" xlink:href="#radial-gradient"/><radialGradient id="radial-gradient-60" cx="-1407.215" cy="1.935" r="0.5897" xlink:href="#radial-gradient"/><radialGradient id="radial-gradient-61" cx="-1340.8203" cy="96.9785" r="1.167" xlink:href="#radial-gradient"/><radialGradient id="radial-gradient-62" cx="-1340.5875" cy="95.4446" r="0.9746" xlink:href="#radial-gradient"/><radialGradient id="radial-gradient-63" cx="-1341.0566" cy="98.4296" r="1.2521" xlink:href="#radial-gradient"/><radialGradient id="radial-gradient-64" cx="-1339.7387" cy="80.4111" r="1.3121" xlink:href="#radial-gradient"/><radialGradient id="radial-gradient-65" cx="-1405.738" cy="2.2529" r="0.6433" xlink:href="#radial-gradient"/><radialGradient id="radial-gradient-66" cx="-1340.321" cy="71.6602" r="1.7368" xlink:href="#radial-gradient"/><radialGradient id="radial-gradient-67" cx="-1373.0946" cy="1.7975" r="94.2209" xlink:href="#radial-gradient"/><radialGradient id="radial-gradient-68" cx="-1339.8052" cy="78.133" r="1.6727" xlink:href="#radial-gradient"/><radialGradient id="radial-gradient-69" cx="-1340.0857" cy="74.1939" r="1.2487" xlink:href="#radial-gradient"/><radialGradient id="radial-gradient-70" cx="-1339.9219" cy="76.2188" r="1.3301" xlink:href="#radial-gradient"/></defs><g class="cls-1"><g id="Layer_2" data-name="Layer 2"><g id="BACKGROUND2"><path class="cls-2" d="M217.4547.2008s-40.66-4.6915-71.9368,31.2769-13.5521,82.3438-13.5521,82.3438S97.0387,102.6326,79.0545,126.09s-3.91,49.2611-3.91,49.2611-49.2611-14.0746-73.5006,30.495,227.5393,77.41,227.5393,77.41l37.5322-62.5537Z"/><path class="cls-3" d="M131.3493,112.0206c.043.1339.0846.2621.1239.3816Q131.414,112.2222,131.3493,112.0206Z"/><path class="cls-4" d="M131.5228,112.5525q.06.1817.1134.3379C131.6007,112.7858,131.5631,112.674,131.5228,112.5525Z"/><path class="cls-5" d="M131.12,111.2928c.0613.1986.12.3855.1762.562C131.24,111.6782,131.1814,111.4918,131.12,111.2928Z"/><path class="cls-6" d="M126.9691,83.8036q-.0051-.6556-.0011-1.32Q126.964,83.148,126.9691,83.8036Z"/><path class="cls-7" d="M131.9005,113.6447l.04.1093C131.93,113.7265,131.9172,113.6907,131.9005,113.6447Z"/><path class="cls-8" d="M130.8952,110.55c.0718.2416.1416.4737.2083.69C131.0368,111.0233,130.967,110.7914,130.8952,110.55Z"/><path class="cls-9" d="M131.6656,112.9774c.0435.1273.083.241.1179.34C131.7485,113.218,131.7094,113.1055,131.6656,112.9774Z"/><path class="cls-10" d="M131.8068,113.3833c.0251.0709.0484.1363.0677.19C131.8549,113.519,131.8322,113.4553,131.8068,113.3833Z"/><path class="cls-11" d="M130.415,108.8629c.0618.2258.1229.446.1826.6577C130.5377,109.3087,130.4769,109.089,130.415,108.8629Z"/><path class="cls-12" d="M128.7446,101.6253q.0939.4914.19.966Q128.8386,102.1161,128.7446,101.6253Z"/><path class="cls-13" d="M129.286,104.2679q.1131.5151.2264,1.0063Q129.3992,104.7828,129.286,104.2679Z"/><path class="cls-14" d="M130.669,109.7718q.0859.301.1685.5813C130.7824,110.166,130.7265,109.9728,130.669,109.7718Z"/><path class="cls-15" d="M128.9976,102.9077c.0849.4152.1705.8221.2566,1.2172C129.1681,103.73,129.0825,103.323,128.9976,102.9077Z"/><path class="cls-16" d="M131.9658,113.8215a68.4767,68.4767,0,0,0-16.4727-2.6129A68.4767,68.4767,0,0,1,131.9658,113.8215Z"/><path class="cls-17" d="M130.1078,107.7114q.1261.4868.2486.938C130.2747,108.348,130.1919,108.0361,130.1078,107.7114Z"/><path class="cls-18" d="M129.8554,106.7114q.1083.438.2149.8524Q129.9637,107.15,129.8554,106.7114Z"/><path class="cls-19" d="M129.5928,105.6188q.0926.3941.1844.7722Q129.6853,106.0132,129.5928,105.6188Z"/><path class="cls-20" d="M73.2867,174.9c.4612.1013.8409.1908,1.1348.2632C74.1272,175.0912,73.7479,175.0016,73.2867,174.9Z"/><path class="cls-21" d="M74.4827,175.1787c.2746.0682.4647.1185.5669.1464C74.9463,175.297,74.755,175.2463,74.4827,175.1787Z"/><path class="cls-22" d="M71.555,174.548c.6423.1214,1.2059.2374,1.6856.3423C72.7606,174.7855,72.1974,174.6692,71.555,174.548Z"/><path class="cls-23" d="M75.09,175.3362l.0546.0151Z"/><path class="cls-24" d="M4.7183,200.714q-.4852.7391-.9605,1.503C4.074,201.7064,4.3951,201.2075,4.7183,200.714Z"/><path class="cls-25" d="M75.6286,204.9505c-18.0659,11.7094-46.1709,4.3444-69.7547-5.9446q-.541.7741-1.0707,1.5777c15.36-23.342,38.2531-27.57,53.7151-27.33C78.0739,180.5907,95.8811,191.8239,75.6286,204.9505Z"/><path class="cls-26" d="M3.4231,202.7692c-.2394.393-.4789.786-.7141,1.1893C2.9439,203.5545,3.184,203.163,3.4231,202.7692Z"/><path class="cls-27" d="M69.3585,174.1705c.8039.1254,1.5347.2526,2.1864.3756C70.8932,174.4233,70.1621,174.2957,69.3585,174.1705Z"/><path class="cls-28" d="M75.0922,175.2517l.0291.0554Z"/><path class="cls-29" d="M131.9658,113.8215l-.0186-.05Z"/><path class="cls-30" d="M74.94,174.9515c.037.0738.0688.1372.0962.19C75.0081,175.0884,74.9772,175.0268,74.94,174.9515Z"/><path class="cls-31" d="M74.4634,173.95c.1647.3615.3048.6542.4155.8788C74.7685,174.606,74.6286,174.3121,74.4634,173.95Z"/><path class="cls-32" d="M119.11,152.1042c-27.0451,14.5627-41.5071,8.4563-49.1667-.8037a52.2883,52.2883,0,0,0,4.5006,22.6067c-2.6056-5.7208-10.8662-27.63,4.6108-47.817,9.8988-12.9114,24.9226-15.32,36.4378-14.8816C133.7962,122.0963,146.8,137.1943,119.11,152.1042Z"/><path class="cls-33" d="M63.7065,173.5044c1.0616.0864,2.0651.189,3.0048.3018C65.7717,173.6935,64.7677,173.5906,63.7065,173.5044Z"/><path class="cls-34" d="M66.7279,173.8082c.9414.1131,1.817.2355,2.6211.3608C68.5451,174.0438,67.6689,173.9212,66.7279,173.8082Z"/><path class="cls-35" d="M58.5185,173.2532q.8941.0138,1.753.0473Q59.4119,173.2679,58.5185,173.2532Z"/><path class="cls-36" d="M60.353,173.3034c1.16.0451,2.27.1133,3.3249.1987C62.6235,173.4169,61.5126,173.3484,60.353,173.3034Z"/><path class="cls-37" d="M127.0123,86.1083q.0285.89.0739,1.76C127.057,87.2876,127.0313,86.7018,127.0123,86.1083Z"/><path class="cls-38" d="M206.7083.2388q-.4982.0385-1.0155.0847Q206.21.2773,206.7083.2388Z"/><path class="cls-39" d="M205.5612.3355q-.5007.0456-1.0182.0989Q205.0605.3812,205.5612.3355Z"/><path class="cls-40" d="M211.617.0087c-1.4014.021-3.0248.0858-4.8374.2245C208.5925.0947,210.2156.03,211.617.0087Z"/><path class="cls-41" d="M212.4109.0012q-.35.0014-.72.0065Q212.0614.0026,212.4109.0012Z"/><path class="cls-42" d="M128.4848,100.2079q.09.51.182,1.0049Q128.5745,100.7184,128.4848,100.2079Z"/><path class="cls-43" d="M197.976,1.3635q-.637.1144-1.2889.2416Q197.3387,1.4782,197.976,1.3635Z"/><path class="cls-44" d="M204.4082.4483q-.5459.0571-1.1095.1234Q203.8624.5053,204.4082.4483Z"/><path class="cls-45" d="M203.2345.5791c-1.6318.1934-3.372.4461-5.2038.7743C199.8628,1.0253,201.6026.7723,203.2345.5791Z"/><path class="cls-46" d="M217.0809.1648C217.0294.16,216.9721.1555,216.91.15,216.9727.1555,217.0289.16,217.0809.1648Z"/><path class="cls-47" d="M196.5,1.6421q-.5955.1173-1.2023.2455Q195.9048,1.7594,196.5,1.6421Z"/><path class="cls-48" d="M217.2846.1833l-.1361-.0126Z"/><path class="cls-49" d="M216.8255.1437c-.0672-.0052-.1416-.0108-.2192-.0163C216.6846.133,216.7578.1384,216.8255.1437Z"/><path class="cls-50" d="M213.8708.0113q-.2884-.0052-.5974-.0081Q213.5829.0061,213.8708.0113Z"/><path class="cls-51" d="M217.39.1939l-.0768-.0078Z"/><path class="cls-52" d="M214.5625.0273c-.191-.0056-.3912-.0105-.5993-.0145Q214.2755.0189,214.5625.0273Z"/><path class="cls-53" d="M216.5017.12c-.0912-.0063-.19-.0127-.2939-.019C216.3117.1074,216.41.1137,216.5017.12Z"/><path class="cls-54" d="M216.1289.096c-.4219-.0252-.9386-.05-1.5452-.068C215.19.0461,215.7072.0707,216.1289.096Z"/><path class="cls-55" d="M212.5258.001q.33-.0007.64.0015Q212.8559,0,212.5258.001Z"/><path class="cls-56" d="M127.3625,91.7929q.0744.8208.16,1.62Q127.4367,92.6145,127.3625,91.7929Z"/><path class="cls-57" d="M127.5509,93.6674q.0727.6647.1525,1.3133Q127.6236,94.3324,127.5509,93.6674Z"/><path class="cls-58" d="M127.2272,90.1309q.0474.6439.1025,1.2753Q127.275,90.7744,127.2272,90.1309Z"/><path class="cls-59" d="M127.1126,88.343q.035.6339.0772,1.2573Q127.1472,88.9772,127.1126,88.343Z"/><path class="cls-60" d="M126.9735,84.3359c.0078.58.02,1.1559.0376,1.725Q126.9841,85.2072,126.9735,84.3359Z"/><path class="cls-61" d="M195.0651,1.9371q-.6027.129-1.216.2692Q194.4623,2.0662,195.0651,1.9371Z"/><path class="cls-62" d="M127.97,96.9889q.0958.6686.1973,1.3173Q128.0661,97.6584,127.97,96.9889Z"/><path class="cls-63" d="M127.7631,95.4533q.0711.5568.1466,1.1008Q127.8341,96.01,127.7631,95.4533Z"/><path class="cls-64" d="M128.188,98.4408q.1139.72.234,1.4125C128.3422,99.3909,128.2639,98.9211,128.188,98.4408Z"/><path class="cls-65" d="M127.0038,80.4228q-.0214.7473-.0309,1.4852Q126.9821,81.17,127.0038,80.4228Z"/><path class="cls-66" d="M193.634,2.2554q-.6487.15-1.3089.3129Q192.9851,2.4054,193.634,2.2554Z"/><path class="cls-67" d="M127.6835,71.6757c-.085.658-.1594,1.3117-.2282,1.9627C127.5241,72.9873,127.5986,72.3337,127.6835,71.6757Z"/><path class="cls-68" d="M187.5772,3.878c-.0684,41.0373-4.66,105.0929-33.0135,100.0624-17.7575-3.15-24.7191-17.2157-26.8794-32.2708a74.8637,74.8637,0,0,1,17.8336-40.1919A89.9885,89.9885,0,0,1,192.1838,2.6028Q189.9387,3.1608,187.5772,3.878Z"/><path class="cls-69" d="M127.0956,78.148q-.0513.9536-.082,1.8931Q127.0444,79.1018,127.0956,78.148Z"/><path class="cls-70" d="M127.3991,74.2051q-.07.7091-.1286,1.4121Q127.3286,74.9143,127.3991,74.2051Z"/><path class="cls-71" d="M127.2213,76.2307q-.0571.7565-.1,1.5048Q127.1646,76.9869,127.2213,76.2307Z"/></g></g></g></svg>