<svg xmlns="http://www.w3.org/2000/svg" xmlns:xlink="http://www.w3.org/1999/xlink" viewBox="0 0 45.301 45.301"><defs><style>.cls-1{fill:#fff;opacity:0.12;}.cls-2{fill:url(#linear-gradient);}.cls-3{fill:url(#linear-gradient-2);}.cls-4{fill:#4555b4;}.cls-4,.cls-6{opacity:0.4;}.cls-5{fill:url(#linear-gradient-3);}.cls-6{fill:#387639;}.cls-7{fill:url(#linear-gradient-4);}</style><linearGradient id="linear-gradient" x1="10.0377" y1="35.2634" x2="35.2634" y2="10.0377" gradientUnits="userSpaceOnUse"><stop offset="0" stop-color="#009de0"/><stop offset="1" stop-color="#4555b4"/></linearGradient><linearGradient id="linear-gradient-2" x1="12.9206" y1="17.7646" x2="40.4878" y2="17.7646" gradientUnits="userSpaceOnUse"><stop offset="0.0014" stop-color="#68cd6a"/><stop offset="1" stop-color="#387639"/></linearGradient><linearGradient id="linear-gradient-3" x1="4.8133" y1="25.3449" x2="14.2356" y2="25.3449" gradientUnits="userSpaceOnUse"><stop offset="0" stop-color="#387639"/><stop offset="0.9986" stop-color="#68cd6a"/></linearGradient><linearGradient id="linear-gradient-4" x1="21.8896" y1="37.978" x2="33.4325" y2="37.978" xlink:href="#linear-gradient-2"/></defs><g id="Layer_2" data-name="Layer 2"><g id="OBJECTS"><circle class="cls-1" cx="22.6505" cy="22.6505" r="22.6505"/><circle class="cls-1" cx="22.6505" cy="22.6505" r="20.2439"/><circle class="cls-2" cx="22.6505" cy="22.6505" r="17.8373"/><path class="cls-3" d="M22.6505,4.8132a17.727,17.727,0,0,0-9.307,2.6418,11.634,11.634,0,0,0-.4086,3.5872c.1461,2.7007,1.8128,5.5208,4.4567,6.09,2.2518.4849,4.8208-.683,6.8.4958,1.6453.98,2.09,3.1431,2.1769,5.0562s.0233,3.9854,1.1434,5.5387c1.3179,1.8276,3.8116,2.2978,6.06,2.4383a16.3774,16.3774,0,0,0,5.169-.3518A17.8054,17.8054,0,0,0,22.6505,4.8132Z"/><path class="cls-4" d="M25.3936,36.3283A17.8058,17.8058,0,0,1,9.2887,10.8616,17.8223,17.8223,0,1,0,38.7554,30.28,17.7758,17.7758,0,0,1,25.3936,36.3283Z"/><path class="cls-5" d="M10.31,24.2886c-.9762-2.6233.826-5.8852-.7046-8.2288a4.3132,4.3132,0,0,0-2.7325-1.7175,17.8134,17.8134,0,0,0,4.3579,22.0052,13.8914,13.8914,0,0,0,1.4948-1.9353c.8286-1.2454,1.67-2.645,1.4842-4.1292C13.9085,27.8856,11.1523,26.5531,10.31,24.2886Z"/><path class="cls-6" d="M4.9164,24.5461c.0551.5221.1363,1.0362.2356,1.5439.0186.0952.0369.1906.057.2852q.1574.74.3746,1.4567c.0292.0962.0609.1914.0917.287.1533.4763.3222.9455.5136,1.4033.0324.0774.0688.1526.1023.2295q.2808.6461.6094,1.265c.0324.0609.0617.1238.0949.1844.23.421.4831.8279.7457,1.2275.0666.1012.1313.204.2.3038.2571.3744.53.7363.8144,1.0892q.1343.1665.2718.33.43.5094.8966.9864c.1.1019.2033.2.3057.3.3234.3143.6545.6206,1.001.91a13.8907,13.8907,0,0,0,1.4947-1.9353,11.0144,11.0144,0,0,0,1.2226-2.2475A17.7944,17.7944,0,0,1,7.5564,18.491a17.5561,17.5561,0,0,1,.4121-3.7647,5.4952,5.4952,0,0,0-1.0772-.3784c-.0625.1176-.1331.23-.193.3494q-.046.0926-.091.1856a17.6771,17.6771,0,0,0-1.0551,2.7147c-.0337.1135-.0659.2276-.0974.342-.1227.4457-.2335.8964-.3216,1.3554-.0037.0192-.0089.0378-.0126.057-.0891.4723-.1523.9534-.203,1.4382-.0129.123-.0242.2464-.0346.37-.0411.4919-.07.9875-.07,1.49,0,.5684.033,1.1287.085,1.6835C4.9049,24.4046,4.909,24.4758,4.9164,24.5461Z"/><path class="cls-7" d="M29.8219,35.77a7.3692,7.3692,0,0,0-4.3866.0709,6.1208,6.1208,0,0,0-2.6385,2.8457c-.3125.58-.5955,1.1813-.9072,1.7627.2542.0108.5041.0385.7609.0385a17.7359,17.7359,0,0,0,10.782-3.6512A13.4726,13.4726,0,0,0,29.8219,35.77Z"/><path class="cls-6" d="M24.6993,36.2932a7.2206,7.2206,0,0,0-1.9025,2.3934c-.3125.58-.5955,1.1812-.9072,1.7627.2542.0107.504.0384.7609.0384l.0112,0c.477,0,.9486-.0221,1.4157-.0595.135-.0107.2674-.0306.4015-.0443.3406-.0352.68-.0745,1.0144-.1287.1369-.022.2716-.05.4075-.0753.3359-.0626.67-.1312.9987-.2125.1153-.0282.23-.0592.344-.09.3581-.0962.7125-.2016,1.0614-.3193.0777-.0261.1556-.052.2329-.0791.4045-.1427.8033-.2975,1.1939-.468.02-.0088.04-.0168.0605-.0255a18.004,18.004,0,0,0,3.64-2.1488A13.4726,13.4726,0,0,0,29.8219,35.77l-.046-.0084a17.7131,17.7131,0,0,1-4.3823.5666C25.1592,36.3282,24.9314,36.3022,24.6993,36.2932Z"/></g></g></svg>