<svg xmlns="http://www.w3.org/2000/svg" xmlns:xlink="http://www.w3.org/1999/xlink" viewBox="0 0 125.2613 125.2614"><defs><style>.cls-1{fill:#fff;opacity:0.12;}.cls-2{fill:url(#linear-gradient);}.cls-3{fill:url(#linear-gradient-2);}.cls-4{fill:url(#linear-gradient-3);}.cls-5{fill:url(#linear-gradient-4);}.cls-6{fill:url(#linear-gradient-5);}.cls-7{fill:#cc6748;opacity:0.4;}</style><linearGradient id="linear-gradient" x1="23.1243" y1="102.137" x2="102.1369" y2="23.1244" gradientUnits="userSpaceOnUse"><stop offset="0" stop-color="#e2b068"/><stop offset="1" stop-color="#e07850"/></linearGradient><linearGradient id="linear-gradient-2" x1="9.0791" y1="79.1299" x2="118.4842" y2="79.1299" gradientUnits="userSpaceOnUse"><stop offset="0" stop-color="#e07850"/><stop offset="1" stop-color="#e2b068"/></linearGradient><linearGradient id="linear-gradient-3" x1="7.3271" y1="45.5035" x2="115.6506" y2="45.5035" xlink:href="#linear-gradient-2"/><linearGradient id="linear-gradient-4" x1="18.7967" y1="20.7344" x2="96.8345" y2="20.7344" xlink:href="#linear-gradient-2"/><linearGradient id="linear-gradient-5" x1="23.579" y1="107.1603" x2="96.6258" y2="107.1603" xlink:href="#linear-gradient-2"/></defs><g id="Layer_2" data-name="Layer 2"><g id="OBJECTS"><circle class="cls-1" cx="62.6306" cy="62.6307" r="62.6307"/><circle class="cls-1" cx="62.6306" cy="62.6307" r="59.2421"/><circle class="cls-2" cx="62.6306" cy="62.6307" r="55.8703"/><path class="cls-3" d="M118.4842,63.2957c-1.0665-.7386-2.1542-1.4471-3.2936-2.08-6.5385-3.6348-14.7116-5.1234-21.5418-2.0719C85.0611,62.98,80.3375,72.9777,71.5712,76.3866c-8.8132,3.4272-18.4938-.8375-27.77-2.6744A54.3181,54.3181,0,0,0,9.0791,78.565a55.5639,55.5639,0,0,0,5.6688,12.8609A44.2088,44.2088,0,0,1,29.1449,88.71c7.392-.2981,14.8136.4735,22.185-.1538,10.015-.8523,20.21-4.2555,29.89-1.5488,5.5054,1.54,10.28,4.936,14.8411,8.3824,2.4235,1.8313,4.85,3.7015,7.3882,5.37A55.6519,55.6519,0,0,0,118.4842,63.2957Z"/><path class="cls-4" d="M115.6506,45.0161a55.7165,55.7165,0,0,0-9.0678-16.8554,35.8593,35.8593,0,0,0-13.9957,2.4117c-7.3077,2.6561-14.1675,6.6525-21.7719,8.2745-10.8483,2.314-22.0364-.41-33.0438-1.78-8.7453-1.0891-18.2661-1.0751-26.0559,2.5683A55.4509,55.4509,0,0,0,7.3271,54.728c9.7756,7.8187,23.7539,10.4557,35.5265,5.99C50.4593,57.8332,56.9685,52.4108,64.75,50.042c7.4638-2.2721,15.462-1.5521,23.24-.9436s15.85,1.0445,23.14-1.7329A22.87,22.87,0,0,0,115.6506,45.0161Z"/><path class="cls-5" d="M82.8155,10.535a19.42,19.42,0,0,1-5.0325,2.1723c-4.9912,1.3629-10.2623,1.17-15.385,1.8955-4.0282.5708-7.9525,1.7085-11.9438,2.4967a69.995,69.995,0,0,1-21.3757.8578A56.179,56.179,0,0,0,18.7967,28.01c5.6373,2.8974,12.62,3.3776,19.0451,2.5772,8.5346-1.0632,16.7724-4,25.3375-4.7793,8.1634-.7426,16.5926.4729,24.4469-1.8723A22.19,22.19,0,0,0,96.8345,18.47,55.7641,55.7641,0,0,0,82.8155,10.535Z"/><path class="cls-6" d="M96.6258,106.9559c-4.62-.9743-9.3673-1.2781-14.0315-2.05-7.9026-1.3082-15.5086-3.97-23.2737-5.9358S43.4118,95.7331,35.55,97.2658A28.898,28.898,0,0,0,23.579,102.57,56.0108,56.0108,0,0,0,37.29,112.4189a41.2206,41.2206,0,0,1,19.6787-.1413c5.1333,1.2456,9.9562,3.4616,14.8559,5.4571A55.5849,55.5849,0,0,0,96.6258,106.9559Z"/><path class="cls-7" d="M71.22,105.46A55.7546,55.7546,0,0,1,20.7911,25.7165,55.8064,55.8064,0,1,0,113.06,86.5205,55.6613,55.6613,0,0,1,71.22,105.46Z"/></g></g></svg>