<svg xmlns="http://www.w3.org/2000/svg" xmlns:xlink="http://www.w3.org/1999/xlink" viewBox="0 0 33.6383 33.6383"><defs><style>.cls-1{fill:#fff;opacity:0.12;}.cls-2{fill:url(#linear-gradient);}.cls-3{fill:url(#linear-gradient-2);}.cls-4{fill:url(#linear-gradient-3);}.cls-5{fill:url(#linear-gradient-4);}.cls-6{fill:#b22622;opacity:0.4;}</style><linearGradient id="linear-gradient" x1="8.3199" y1="25.3184" x2="25.3184" y2="8.3199" gradientTransform="translate(29.4614 -3.3289) rotate(77.1069)" gradientUnits="userSpaceOnUse"><stop offset="0.0013" stop-color="#f0a026"/><stop offset="1" stop-color="#c22e26"/></linearGradient><linearGradient id="linear-gradient-2" x1="11.9207" y1="13.0943" x2="20.9923" y2="4.0227" gradientTransform="matrix(1, 0, 0, 1, 0, 0)" xlink:href="#linear-gradient"/><linearGradient id="linear-gradient-3" x1="18.3063" y1="27.7059" x2="30.0424" y2="15.9698" gradientUnits="userSpaceOnUse"><stop offset="0" stop-color="#c22e26"/><stop offset="0.9987" stop-color="#f0a026"/></linearGradient><linearGradient id="linear-gradient-4" x1="6.9827" y1="23.9713" x2="17.4152" y2="13.5388" gradientTransform="matrix(1, 0, 0, 1, 0, 0)" xlink:href="#linear-gradient"/></defs><g id="Layer_2" data-name="Layer 2"><g id="OBJECTS"><circle class="cls-1" cx="16.8192" cy="16.8192" r="16.8191" transform="translate(-3.4357 29.2895) rotate(-76.6194)"/><circle class="cls-1" cx="16.8192" cy="16.8192" r="14.4194" transform="translate(-3.4326 29.2945) rotate(-76.6335)"/><circle class="cls-2" cx="16.8192" cy="16.8192" r="12.0197" transform="translate(-3.3289 29.4614) rotate(-77.1069)"/><path class="cls-3" d="M16.8192,4.7994A11.961,11.961,0,0,0,8.9371,7.7589,9.3746,9.3746,0,0,0,9.103,8.8237a5.6088,5.6088,0,0,0,2.385,3.6614,3.4356,3.4356,0,0,0,4.1438-.3574c.7261-.7577,1.0509-1.9423,2.0071-2.3747,1.1262-.5093,2.3757.3267,3.6031.4719a3.88,3.88,0,0,0,3.611-1.9023c.0575-.0935.0977-.1945.1479-.2913A11.9642,11.9642,0,0,0,16.8192,4.7994Z"/><path class="cls-4" d="M28.8389,16.8191a12.0607,12.0607,0,0,0-.2216-2.2744c-.0162.0109-.0348.0154-.0508.0269-1.3019.9332-1.4314,2.8564-2.5085,4.0421-1.3087,1.4405-3.5732,1.3959-5.2925,2.3079a5.22,5.22,0,0,0-2.687,4.9482,4.54,4.54,0,0,0,1.1228,2.7311A12.0224,12.0224,0,0,0,28.8389,16.8191Z"/><path class="cls-5" d="M16.5784,15.09c-1.2369.3717-2.3183,1.1871-3.5813,1.4574a7.2771,7.2771,0,0,1-4.3961-.7712,30.4116,30.4116,0,0,0-3.5174-1.5354,11.9865,11.9865,0,0,0,8.9884,14.27,6.6775,6.6775,0,0,0,.0424-2.5574,6.7944,6.7944,0,0,1,2.6644-5.693,25.5253,25.5253,0,0,0,2.2432-1.5681,2.4565,2.4565,0,0,0,.8568-2.4459C19.4685,15.0222,17.8152,14.7186,16.5784,15.09Z"/><path class="cls-6" d="M18.6676,26.036A11.9985,11.9985,0,0,1,7.8152,8.8752,12.01,12.01,0,1,0,27.6715,21.96,11.9784,11.9784,0,0,1,18.6676,26.036Z"/></g></g></svg>