<svg xmlns="http://www.w3.org/2000/svg" xmlns:xlink="http://www.w3.org/1999/xlink" viewBox="0 0 39.0669 39.0669"><defs><style>.cls-1{fill:#fff;opacity:0.12;}.cls-2{fill:url(#linear-gradient);}.cls-3{fill:url(#linear-gradient-2);}.cls-4{fill:url(#linear-gradient-3);}.cls-5{fill:url(#linear-gradient-4);}.cls-6{fill:#d3915f;opacity:0.4;}</style><linearGradient id="linear-gradient" x1="9.1149" y1="29.952" x2="29.952" y2="9.1149" gradientTransform="translate(19.5334 -8.091) rotate(45)" gradientUnits="userSpaceOnUse"><stop offset="0" stop-color="#f9cda5"/><stop offset="1" stop-color="#e5a36a"/></linearGradient><linearGradient id="linear-gradient-2" x1="16.1016" y1="17.6703" x2="27.2979" y2="6.474" gradientUnits="userSpaceOnUse"><stop offset="0" stop-color="#e5a36a"/><stop offset="1" stop-color="#f9cda5"/></linearGradient><linearGradient id="linear-gradient-3" x1="6.6282" y1="27.4509" x2="13.0952" y2="20.9839" gradientTransform="matrix(1, 0, 0, 1, 0, 0)" xlink:href="#linear-gradient"/><linearGradient id="linear-gradient-4" x1="17.0628" y1="25.0525" x2="34.2606" y2="25.0525" xlink:href="#linear-gradient-2"/></defs><g id="Layer_2" data-name="Layer 2"><g id="OBJECTS"><circle class="cls-1" cx="19.5335" cy="19.5334" r="19.5335" transform="translate(-8.091 19.5335) rotate(-45)"/><circle class="cls-1" cx="19.5335" cy="19.5334" r="17.1338" transform="translate(-8.091 19.5335) rotate(-45)"/><circle class="cls-2" cx="19.5335" cy="19.5334" r="14.7341" transform="translate(-8.091 19.5335) rotate(-45)"/><path class="cls-3" d="M19.5335,4.7994A14.6794,14.6794,0,0,0,8.9183,9.3312c.0257.0767.0522.17.0774.2393.9079,2.499,3.2831,4.6759,5.9325,4.4524,2.1966-.1853,4.0445-1.9164,6.2446-2.0537,3.53-.22,6.1171,3.6158,9.6231,4.0852a5.2978,5.2978,0,0,0,2.92-.4718A14.7285,14.7285,0,0,0,19.5335,4.7994Z"/><path class="cls-4" d="M14.6094,25.69c-1.4566-.86-3.5834-.4364-4.6869-1.718-1.5242-1.77.5088-4.7784-.7054-6.7743-.7884-1.296-2.673-1.5021-4.0576-.8694a14.6767,14.6767,0,0,0,8.29,16.6136,6.2961,6.2961,0,0,0,1.1178-.839,5.0481,5.0481,0,0,0,1.6083-3.2507A3.463,3.463,0,0,0,14.6094,25.69Z"/><path class="cls-5" d="M34.2606,19.67c-.4125-.1773-.8236-.3583-1.2377-.5278a20.3867,20.3867,0,0,0-12.07-1.0245,5.7112,5.7112,0,0,0-3.2824,1.6715,2.4119,2.4119,0,0,0,.1342,3.3517c1.3244.9787,3.5023-.1094,4.7226.9962.8543.774.6911,2.1191.7739,3.2689a6.4818,6.4818,0,0,0,3.2935,5.06A14.7263,14.7263,0,0,0,34.2606,19.67Z"/><path class="cls-6" d="M21.7993,30.8316A14.7079,14.7079,0,0,1,8.4963,9.7955a14.7216,14.7216,0,1,0,24.34,16.04A14.6834,14.6834,0,0,1,21.7993,30.8316Z"/></g></g></svg>