<svg xmlns="http://www.w3.org/2000/svg" xmlns:xlink="http://www.w3.org/1999/xlink" viewBox="0 0 55.1964 55.1964"><defs><style>.cls-1{fill:#fff;opacity:0.12;}.cls-2{fill:url(#linear-gradient);}.cls-3{fill:url(#linear-gradient-2);}.cls-4{fill:url(#linear-gradient-3);}.cls-5{fill:url(#linear-gradient-4);}.cls-6{fill:url(#linear-gradient-5);}.cls-7{fill:url(#linear-gradient-6);}.cls-8{fill:url(#linear-gradient-7);}.cls-9{fill:#330a63;opacity:0.4;}</style><linearGradient id="linear-gradient" x1="11.477" y1="43.7194" x2="43.7194" y2="11.477" gradientUnits="userSpaceOnUse"><stop offset="0" stop-color="#480c85"/><stop offset="0.9986" stop-color="#4549ea"/></linearGradient><linearGradient id="linear-gradient-2" x1="12.4491" y1="12.4638" x2="46.2917" y2="12.4638" gradientUnits="userSpaceOnUse"><stop offset="0.0014" stop-color="#4549ea"/><stop offset="1" stop-color="#480c85"/></linearGradient><linearGradient id="linear-gradient-3" x1="8.4026" y1="18.3533" x2="49.9717" y2="18.3533" xlink:href="#linear-gradient-2"/><linearGradient id="linear-gradient-4" x1="5.3259" y1="26.3264" x2="50.397" y2="26.3264" xlink:href="#linear-gradient-2"/><linearGradient id="linear-gradient-5" x1="4.7994" y1="35.0706" x2="48.113" y2="35.0706" xlink:href="#linear-gradient-2"/><linearGradient id="linear-gradient-6" x1="9.678" y1="46.0403" x2="37.3563" y2="46.0403" xlink:href="#linear-gradient-2"/><linearGradient id="linear-gradient-7" x1="19.2568" y1="6.9778" x2="40.6346" y2="6.9778" xlink:href="#linear-gradient-2"/></defs><g id="Layer_2" data-name="Layer 2"><g id="OBJECTS"><circle class="cls-1" cx="27.5982" cy="27.5982" r="27.5982"/><circle class="cls-1" cx="27.5982" cy="27.5982" r="25.1985"/><circle class="cls-2" cx="27.5982" cy="27.5982" r="22.7988"/><path class="cls-3" d="M43.3678,11.1418a68.0866,68.0866,0,0,1-27.8127-2.9,22.87,22.87,0,0,0-3.106,2.3241c6.7264,1.9537,13.1987,5.012,20.1475,5.9233a27.9229,27.9229,0,0,0,13.6951-1.9356A22.9083,22.9083,0,0,0,43.3678,11.1418Z"/><path class="cls-4" d="M23.568,17.5189c-4.2754-1.6965-8.4206-3.7117-12.6933-5.41a22.8866,22.8866,0,0,0-2.4721,3.1955A70.0212,70.0212,0,0,0,42.431,24.5954c2.5851.0263,5.2893-.1409,7.5407-1.38a22.6234,22.6234,0,0,0-1.4135-4.5964,22.09,22.09,0,0,1-9.8277,2.29C33.5192,20.9391,28.412,19.4411,23.568,17.5189Z"/><path class="cls-5" d="M35.0483,29.7992a37.6414,37.6414,0,0,1-20.2238-7.34,40.2017,40.2017,0,0,0-4.78-3.3941A9.5987,9.5987,0,0,0,6.92,17.996a22.622,22.622,0,0,0-1.5943,4.7333,11.3319,11.3319,0,0,1,3.3107.9546,43.9733,43.9733,0,0,1,5.56,3.388,48.4345,48.4345,0,0,0,17.37,6.9253,28.62,28.62,0,0,0,13.6286-.3279A19.8988,19.8988,0,0,0,50.08,31.3725a22.9349,22.9349,0,0,0,.3166-3.7743c0-.0642-.0042-.1274-.0048-.1916A37.6254,37.6254,0,0,1,35.0483,29.7992Z"/><path class="cls-6" d="M48.113,37.5523a33.7875,33.7875,0,0,1-17.633,1.936C20.954,37.934,12.6728,32.4046,4.8223,26.6948c-.0118.3-.0229.6005-.0229.9034a22.8658,22.8658,0,0,0,.5155,4.8212,46.8444,46.8444,0,0,0,15.4556,8.19,67.8071,67.8071,0,0,0,21.905,2.8155q.6821-.0152,1.37-.0475A22.8433,22.8433,0,0,0,48.113,37.5523Z"/><path class="cls-7" d="M20.4053,44.5212c-1.7088-.6769-6.972-2.7128-10.7273-2.8376a22.7967,22.7967,0,0,0,27.6783,6.5222c-.529.0417-1.0584.0931-1.5863.1237C30.4568,48.6372,25.3533,46.4811,20.4053,44.5212Z"/><path class="cls-8" d="M27.5982,4.7994a22.727,22.727,0,0,0-8.3414,1.5815c6.2369,2.6085,14.2644,3.0914,20.5419,2.61.2729-.0209.5534-.0517.8359-.0921A22.6865,22.6865,0,0,0,27.5982,4.7994Z"/><path class="cls-9" d="M31.1033,45.0753a22.7516,22.7516,0,0,1-20.5784-32.54A22.7727,22.7727,0,1,0,48.1765,37.3469,22.7133,22.7133,0,0,1,31.1033,45.0753Z"/></g></g></svg>