<svg xmlns="http://www.w3.org/2000/svg" xmlns:xlink="http://www.w3.org/1999/xlink" viewBox="0 0 978.3698 327.892"><defs><style>.cls-1{isolation:isolate;}.cls-2,.cls-3,.cls-4,.cls-5,.cls-7{mix-blend-mode:screen;}.cls-2{fill:url(#radial-gradient);}.cls-3{fill:url(#radial-gradient-2);}.cls-4{fill:url(#radial-gradient-3);}.cls-5{fill:url(#radial-gradient-4);}.cls-10,.cls-11,.cls-12,.cls-13,.cls-6,.cls-8,.cls-9{opacity:0.5;}.cls-6{fill:url(#radial-gradient-5);}.cls-7{fill:url(#radial-gradient-6);}.cls-8{fill:url(#radial-gradient-7);}.cls-9{fill:url(#radial-gradient-8);}.cls-10{fill:url(#radial-gradient-9);}.cls-11{fill:url(#radial-gradient-10);}.cls-12{fill:url(#radial-gradient-11);}.cls-13{fill:url(#radial-gradient-12);}.cls-14,.cls-15,.cls-16,.cls-17,.cls-18,.cls-19,.cls-20,.cls-21,.cls-22,.cls-23,.cls-24,.cls-25,.cls-26,.cls-27,.cls-28,.cls-29,.cls-30{opacity:0.25;}.cls-14{fill:url(#radial-gradient-13);}.cls-15{fill:url(#radial-gradient-14);}.cls-16{fill:url(#radial-gradient-15);}.cls-17{fill:url(#radial-gradient-16);}.cls-18{fill:url(#radial-gradient-17);}.cls-19{fill:url(#radial-gradient-18);}.cls-20{fill:url(#radial-gradient-19);}.cls-21{fill:url(#radial-gradient-20);}.cls-22{fill:url(#radial-gradient-21);}.cls-23{fill:url(#radial-gradient-22);}.cls-24{fill:url(#radial-gradient-23);}.cls-25{fill:url(#radial-gradient-24);}.cls-26{fill:url(#radial-gradient-25);}.cls-27{fill:url(#radial-gradient-26);}.cls-28{fill:url(#radial-gradient-27);}.cls-29{fill:url(#radial-gradient-28);}.cls-30{fill:url(#radial-gradient-29);}</style><radialGradient id="radial-gradient" cx="448.4432" cy="44.6712" r="449.6903" gradientTransform="translate(-21.271 -58.7503) scale(1.1244 1.257)" gradientUnits="userSpaceOnUse"><stop offset="0" stop-color="#4a289c" stop-opacity="0"/><stop offset="0.963" stop-color="#00092b"/></radialGradient><radialGradient id="radial-gradient-2" cx="449.1588" cy="61.7926" r="391.5794" xlink:href="#radial-gradient"/><radialGradient id="radial-gradient-3" cx="439.1702" cy="36.4479" r="348.1545" gradientTransform="translate(-21.271 -41.6908) scale(1.1244 1.178)" gradientUnits="userSpaceOnUse"><stop offset="0" stop-color="#4a289c"/><stop offset="0.963" stop-color="#00092b"/></radialGradient><radialGradient id="radial-gradient-4" cx="483.8948" cy="27.5093" r="252.1825" gradientTransform="matrix(1, 0, 0, 1, 0, 0)" xlink:href="#radial-gradient-3"/><radialGradient id="radial-gradient-5" cx="458.7087" cy="1.3557" r="193.4216" gradientTransform="matrix(1.1122, 0.1784, -0.1654, 1.1998, -5.5491, -36.8576)" xlink:href="#radial-gradient-3"/><radialGradient id="radial-gradient-6" cx="478.6784" cy="133.8219" r="145.0413" gradientTransform="translate(-21.271 -49.4584) scale(1.1244 1.2129)" xlink:href="#radial-gradient-3"/><radialGradient id="radial-gradient-7" cx="527.9864" cy="40.8963" r="179.18" gradientTransform="translate(-21.271 -49.4584) scale(1.1244 1.2129)" xlink:href="#radial-gradient-3"/><radialGradient id="radial-gradient-8" cx="527.9865" cy="40.8973" r="179.1784" gradientTransform="translate(-21.271 -49.4584) scale(1.1244 1.2129)" xlink:href="#radial-gradient-3"/><radialGradient id="radial-gradient-9" cx="527.9866" cy="40.897" r="179.1793" gradientTransform="translate(-21.271 -49.4584) scale(1.1244 1.2129)" xlink:href="#radial-gradient-3"/><radialGradient id="radial-gradient-10" cx="527.9862" cy="40.897" r="179.1792" gradientTransform="translate(-21.271 -49.4584) scale(1.1244 1.2129)" xlink:href="#radial-gradient-3"/><radialGradient id="radial-gradient-11" cx="527.9866" cy="40.8969" r="179.1797" gradientTransform="translate(-21.271 -49.4584) scale(1.1244 1.2129)" xlink:href="#radial-gradient-3"/><radialGradient id="radial-gradient-12" cx="527.987" cy="40.8973" r="179.1789" gradientTransform="translate(-21.271 -49.4584) scale(1.1244 1.2129)" xlink:href="#radial-gradient-3"/><radialGradient id="radial-gradient-13" cx="292.0199" cy="127.5694" r="54.6734" gradientTransform="matrix(1.0617, 0.3703, -0.3995, 1.1452, 60.276, -148.632)" xlink:href="#radial-gradient-3"/><radialGradient id="radial-gradient-14" cx="494.4219" cy="-206.8365" r="54.6681" gradientTransform="matrix(-0.3585, 1.0834, -1.1567, -0.309, 571.513, -519.0997)" xlink:href="#radial-gradient-3"/><radialGradient id="radial-gradient-15" cx="495.6892" cy="-456.2314" r="54.671" gradientTransform="matrix(0.7404, 0.9129, -0.8463, 0.7986, 34.0492, 20.581)" xlink:href="#radial-gradient-3"/><radialGradient id="radial-gradient-16" cx="520.5286" cy="-196.3978" r="23.2053" gradientTransform="matrix(1.0166, 0.5184, -0.4806, 1.0966, 4.8881, 11.3963)" xlink:href="#radial-gradient-3"/><radialGradient id="radial-gradient-17" cx="563.579" cy="-173.4844" r="23.2053" gradientTransform="matrix(1.0166, 0.5184, -0.4806, 1.0966, 4.8881, 11.3963)" xlink:href="#radial-gradient-3"/><radialGradient id="radial-gradient-18" cx="578.0864" cy="-209.0405" r="23.2053" gradientTransform="matrix(1.0166, 0.5184, -0.4806, 1.0966, 4.8881, 11.3963)" xlink:href="#radial-gradient-3"/><radialGradient id="radial-gradient-19" cx="538.9904" cy="-327.435" r="23.2056" gradientTransform="matrix(0.8716, 0.7664, -0.7105, 0.9402, 20.9985, 25.6422)" xlink:href="#radial-gradient-3"/><radialGradient id="radial-gradient-20" cx="556.5474" cy="-292.6021" r="37.2409" gradientTransform="matrix(0.9473, 0.6534, -0.6057, 1.0219, 10.2143, 18.7977)" xlink:href="#radial-gradient-3"/><radialGradient id="radial-gradient-21" cx="519.9559" cy="-173.4001" r="37.2409" gradientTransform="matrix(-0.3576, 1.0852, -1.1563, -0.3048, 616.8803, -492.1094)" xlink:href="#radial-gradient-3"/><radialGradient id="radial-gradient-22" cx="364.1373" cy="73.1636" r="33.5472" gradientTransform="matrix(1.1228, 0.065, -0.0602, 1.2112, -15.5873, -36.2521)" xlink:href="#radial-gradient-3"/><radialGradient id="radial-gradient-23" cx="361.4359" cy="104.2481" r="33.5471" gradientTransform="matrix(1.1228, 0.065, -0.0602, 1.2112, -15.5873, -36.2521)" xlink:href="#radial-gradient-3"/><radialGradient id="radial-gradient-24" cx="373.6234" cy="102.2953" r="20.898" gradientTransform="matrix(1.1228, 0.065, -0.0602, 1.2112, -15.5873, -36.2521)" xlink:href="#radial-gradient-3"/><radialGradient id="radial-gradient-25" cx="345.4969" cy="63.0212" r="20.8981" gradientTransform="matrix(1.1228, 0.065, -0.0602, 1.2112, -15.5873, -36.2521)" xlink:href="#radial-gradient-3"/><radialGradient id="radial-gradient-26" cx="314.3705" cy="105.4751" r="20.8981" gradientTransform="matrix(1.1228, 0.065, -0.0602, 1.2112, -15.5873, -36.2521)" xlink:href="#radial-gradient-3"/><radialGradient id="radial-gradient-27" cx="394.0262" cy="89.6429" r="54.6734" gradientTransform="matrix(1.0617, 0.3703, -0.3995, 1.1452, 51.5244, -188.9716)" xlink:href="#radial-gradient-3"/><radialGradient id="radial-gradient-28" cx="414.1986" cy="62.1381" r="20.8981" gradientTransform="matrix(1.1228, 0.065, -0.0602, 1.2112, -15.5873, -36.2521)" xlink:href="#radial-gradient-3"/><radialGradient id="radial-gradient-29" cx="314.4546" cy="72.6225" r="20.898" gradientTransform="matrix(1.1228, 0.065, -0.0602, 1.2112, -15.5873, -36.2521)" xlink:href="#radial-gradient-3"/></defs><g class="cls-1"><g id="Layer_2" data-name="Layer 2"><g id="BACKGROUND2"><path class="cls-2" d="M978.37,211.662C885.6017,85.5326,705.7011,0,498.9589,0,276.5579,0,85.2209,98.9793,0,241.0012V327.892H978.37Z"/><path class="cls-3" d="M915.1552,205.496c-80.78-109.8305-237.4332-184.31-417.4594-184.31-193.6613,0-360.273,86.1887-434.4813,209.858v75.6624H915.1552Z"/><path class="cls-4" d="M867.9174,207.5389C796.0953,116.0253,656.8142,53.9669,496.752,53.9669c-172.1853,0-320.3207,71.8146-386.3,174.8591V291.87H867.9174Z"/><path class="cls-5" d="M232.2839,130.309c-3.5583,38.2477,107.4569,43.0287,234.128,31.3419s215.6257,31.8731,273.98-.5312c23.1085-12.8323,21.995-30.8277,9.8383-48.2815C679.5959,75.87,591.8415,53.9668,496.752,53.9668c-98.5225,0-189.1612,23.5205-261.05,62.9418A46.5385,46.5385,0,0,0,232.2839,130.309Z"/><path class="cls-6" d="M667.664,110.7634c-1.1613,8.4245-18.3434,12.6491-38.3774,9.4359s-35.3335-12.6476-34.1722-21.0721,18.3433-12.6492,38.3774-9.436S668.8252,102.3388,667.664,110.7634ZM297.823,99.383c-18.9146,7.814-31.9588,20.5963-29.1349,28.55s20.4464,8.0673,39.361.2533,31.9587-20.5963,29.1348-28.55S316.7376,91.5691,297.823,99.383Zm63.9859,13.7557c-13.6256,5.2529-23.1325,14.1561-21.2342,19.8859s14.483,6.1163,28.1087.8634,23.1325-14.156,21.2342-19.8858S375.4346,107.8859,361.8089,113.1387Zm30.6092-41.7594c-10.3007,3.4964-17.6267,9.8422-16.3632,14.1738s10.6382,5.0086,20.9389,1.5122,17.6267-9.8423,16.3631-14.1738S402.7187,67.8829,392.4181,71.3793Zm330.6246,49.55c-9.8733-4.7177-19.2593-5.1764-20.9642-1.0245s4.9169,11.342,14.79,16.06,19.2594,5.1764,20.9643,1.0245S732.9161,125.647,723.0427,120.9294ZM676.12,138.7635c-12.1863-1.5187-22.51,1.4044-23.059,6.5289s8.8852,10.51,21.0715,12.0285,22.51-1.4044,23.059-6.5289S688.3062,140.2822,676.12,138.7635Z"/><path class="cls-7" d="M313.8589,127.6166c-8.657,3.5764-17.0384,5.4868-23.8591,5.75a79.25,79.25,0,0,0,18.0493-5.18c18.9145-7.814,31.9587-20.5963,29.1349-28.55-1.5314-4.3135-7.42-6.3157-15.5019-6.0035,11.0012-1.6743,19.4331.1422,21.3116,5.4337C345.8176,107.02,332.7735,119.8026,313.8589,127.6166Zm64.9508-18.16c5.8373-.1053,10.0715,1.4177,11.1079,4.5459,1.8983,5.73-7.6086,14.633-21.2342,19.8858a58.0808,58.0808,0,0,1-11.191,3.1128,51.44,51.44,0,0,0,17.0008-3.6825c13.6256-5.2529,23.1325-14.1561,21.2341-19.8858C394.3715,109.34,387.5537,107.99,378.81,109.4563ZM633.4918,89.6912c20.0339,3.2133,35.3334,12.6476,34.1721,21.0722-.6842,4.9644-6.9349,8.4682-16.0511,9.8531,12.1952-.6095,21.0395-4.4629,21.8609-10.4229,1.1613-8.4245-14.1382-17.8589-34.1722-21.0721a74.003,74.003,0,0,0-22.3259-.4174A80.0563,80.0563,0,0,1,633.4918,89.6912ZM728.8526,120.36c-7.5259-3.596-14.7574-4.7092-18.531-3.2a38.2976,38.2976,0,0,1,12.7212,3.77c9.8733,4.7177,16.4951,11.9079,14.79,16.06a4.1067,4.1067,0,0,1-2.4333,2.176c4.2084.3646,7.3309-.5242,8.2431-2.7458C745.3477,132.2674,738.7259,125.0773,728.8526,120.36ZM681.93,138.1937a44.9512,44.9512,0,0,0-13.3112.195,50.2918,50.2918,0,0,1,7.5014.3748c12.1863,1.5187,21.62,6.904,21.0715,12.0284-.3273,3.0562-4.146,5.3192-9.7484,6.3341,8.6566-.2237,15.1272-2.8791,15.5582-6.9038C703.55,145.0977,694.116,139.7123,681.93,138.1937ZM404.6211,69.1474c4.6577-.0009,8.0159,1.2759,8.7358,3.744,1.2636,4.3316-6.0624,10.6774-16.3631,14.1739a44.867,44.867,0,0,1-6.3932,1.6621,39.0844,39.0844,0,0,0,12.203-2.2318c10.3007-3.4965,17.6267-9.8423,16.3631-14.1739C418.1729,68.9148,412.1543,67.78,404.6211,69.1474Z"/><path class="cls-8" d="M692.835,155.5236a43.2136,43.2136,0,0,0-14.6815-4.3291c-7.598-.9469-14.47-.1662-18.7024,1.7972a43.2116,43.2116,0,0,0,14.6814,4.3292C681.7305,158.2678,688.6028,157.4871,692.835,155.5236Z"/><path class="cls-9" d="M665.7541,114.6583c-5.6874-5.5118-16.9078-10.4-30.2287-12.536-16.6458-2.67-31.3131-.2016-36.4675,5.5409,5.6874,5.5118,16.9078,10.4,30.2287,12.536C645.9324,122.8691,660.6,120.4008,665.7541,114.6583Z"/><path class="cls-10" d="M707.3822,129.8879a43.1,43.1,0,0,0,9.4866,6.0767c7.0046,3.3469,13.7488,4.5382,17.6941,3.4724a43.0929,43.0929,0,0,0-9.4865-6.0767C718.0718,130.0134,711.3276,128.8221,707.3822,129.8879Z"/><path class="cls-11" d="M272.3433,131.9221c6.6857,3.6542,20.7909,2.426,35.7058-3.7357,13.0863-5.4063,23.3582-13.19,27.5134-20.1082-6.6857-3.6541-20.791-2.4259-35.7059,3.7358C286.77,117.22,276.4985,125.004,272.3433,131.9221Z"/><path class="cls-12" d="M394.4517,83.81a41.0322,41.0322,0,0,0-10.8343,5.4529,37.4037,37.4037,0,0,0,13.3764-2.1979,41.0375,41.0375,0,0,0,10.8342-5.453A37.4032,37.4032,0,0,0,394.4517,83.81Z"/><path class="cls-13" d="M345.806,136.9753c5.3091,1.3813,13.8547.3911,22.8774-3.0873,7.8484-3.0256,14.3137-7.2616,18.0366-11.4055-5.3092-1.3813-13.8547-.3912-22.8774,3.0872C355.9942,128.5954,349.5289,132.8315,345.806,136.9753Z"/><ellipse class="cls-14" cx="312.2326" cy="141.6565" rx="14.5962" ry="5.9669" transform="translate(-29.2341 110.7329) rotate(-19.2286)"/><ellipse class="cls-15" cx="597.1688" cy="76.1584" rx="6.0024" ry="14.5101" transform="translate(431.4768 654.913) rotate(-81.2919)"/><path class="cls-16" d="M777.5435,145.0271c-1.6023,2.8349-8.4392,1.4906-15.2707-3.0024s-11.07-10.4334-9.4682-13.2683,8.4392-1.4906,15.2707,3.0024S779.1458,142.1923,777.5435,145.0271Z"/><path class="cls-17" d="M630.3976,81.7467c-.1786,1.3961-3.0507,2.122-6.4151,1.6213s-5.9471-2.0385-5.7685-3.4346,3.0507-2.122,6.4151-1.6213S630.5762,80.3505,630.3976,81.7467Z"/><path class="cls-18" d="M663.1505,129.1908c-.1786,1.3961-3.0507,2.122-6.4152,1.6213s-5.947-2.0384-5.7684-3.4345,3.0507-2.122,6.4151-1.6213S663.329,127.7947,663.1505,129.1908Z"/><path class="cls-19" d="M694.987,97.7206c-.1785,1.3961-3.0507,2.122-6.4151,1.6213s-5.9471-2.0384-5.7685-3.4346,3.0507-2.122,6.4151-1.6213S695.1656,96.3245,694.987,97.7206Z"/><path class="cls-20" d="M721.7872,146.79c-.4839,1.3092-3.4336,1.2706-6.5884-.0862s-5.32-3.5179-4.8362-4.8271,3.4336-1.27,6.5884.0863S722.271,145.4808,721.7872,146.79Z"/><path class="cls-21" d="M714.7684,109.1394c-.5479,2.183-5.2566,2.7074-10.5173,1.1713s-9.0812-4.5512-8.5334-6.7342,5.2566-2.7074,10.5172-1.1712S715.3162,106.9564,714.7684,109.1394Z"/><ellipse class="cls-22" cx="606.6725" cy="122.1726" rx="4.0863" ry="9.889" transform="translate(379.897 697.9769) rotate(-79.8895)"/><path class="cls-23" d="M399.524,96.1293c.4689,1.9734-3.0062,4.6393-7.7619,5.9543s-8.9913.7813-9.46-1.1922,3.0061-4.6394,7.7619-5.9544S399.055,94.1558,399.524,96.1293Z"/><path class="cls-24" d="M394.62,133.603c.4689,1.9735-3.0062,4.6394-7.7619,5.9544s-8.9913.7812-9.46-1.1923,3.0061-4.6393,7.7619-5.9543S394.1506,131.63,394.62,133.603Z"/><path class="cls-25" d="M404.401,124.4526c.2921,1.2294-1.8727,2.89-4.8352,3.7092s-5.6011.4867-5.8932-.7427,1.8726-2.89,4.8352-3.7092S404.1089,123.2232,404.401,124.4526Z"/><path class="cls-26" d="M375.1849,75.0557c.2921,1.2294-1.8727,2.89-4.8353,3.7093s-5.601.4866-5.8932-.7428,1.8727-2.89,4.8353-3.7092S374.8927,73.8263,375.1849,75.0557Z"/><path class="cls-27" d="M337.68,124.4526c.2922,1.2294-1.8726,2.89-4.8352,3.7092s-5.6011.4867-5.8932-.7427,1.8727-2.89,4.8352-3.7092S337.3883,123.2232,337.68,124.4526Z"/><ellipse class="cls-28" cx="426.9283" cy="95.6555" rx="14.5962" ry="5.9669" transform="translate(-7.6856 145.9399) rotate(-19.2286)"/><path class="cls-29" d="M452.3762,78.4516c.2921,1.2294-1.8727,2.89-4.8352,3.7093s-5.6011.4866-5.8932-.7428,1.8726-2.89,4.8352-3.7092S452.0841,77.2222,452.3762,78.4516Z"/><path class="cls-30" d="M339.7525,84.6669c.2921,1.2293-1.8727,2.89-4.8353,3.7092s-5.601.4867-5.8931-.7427,1.8726-2.89,4.8352-3.7092S339.46,83.4375,339.7525,84.6669Z"/></g></g></g></svg>