<svg xmlns="http://www.w3.org/2000/svg" xmlns:xlink="http://www.w3.org/1999/xlink" viewBox="0 0 33.6384 33.6383"><defs><style>.cls-1{fill:#fff;opacity:0.12;}.cls-2{fill:url(#linear-gradient);}.cls-3{fill:url(#linear-gradient-2);}.cls-4{fill:url(#linear-gradient-3);}.cls-5{fill:url(#linear-gradient-4);}.cls-6{fill:#8c683c;opacity:0.4;}</style><linearGradient id="linear-gradient" x1="8.3199" y1="25.3184" x2="25.3185" y2="8.3199" gradientTransform="translate(7.7839 -5.1838) rotate(22.675)" gradientUnits="userSpaceOnUse"><stop offset="0.0013" stop-color="#c5ba9f"/><stop offset="1" stop-color="#a37e4e"/></linearGradient><linearGradient id="linear-gradient-2" x1="4.8182" y1="10.7194" x2="27.6815" y2="10.7194" gradientUnits="userSpaceOnUse"><stop offset="0" stop-color="#a37e4e"/><stop offset="0.9987" stop-color="#c5ba9f"/></linearGradient><linearGradient id="linear-gradient-3" x1="5.1901" y1="24.2727" x2="25.4968" y2="24.2727" xlink:href="#linear-gradient-2"/><linearGradient id="linear-gradient-4" x1="18.4314" y1="18.0402" x2="28.839" y2="18.0402" xlink:href="#linear-gradient-2"/></defs><g id="Layer_2" data-name="Layer 2"><g id="OBJECTS"><circle class="cls-1" cx="16.8192" cy="16.8191" r="16.8192" transform="translate(-5.1949 7.811) rotate(-22.7455)"/><circle class="cls-1" cx="16.8192" cy="16.8191" r="14.4195" transform="translate(-5.1894 7.7974) rotate(-22.7102)"/><circle class="cls-2" cx="16.8192" cy="16.8191" r="12.0198" transform="translate(-5.1838 7.7839) rotate(-22.675)"/><path class="cls-3" d="M16.8192,4.7994A12.0114,12.0114,0,0,0,4.8182,16.4475a11.6038,11.6038,0,0,0,8.8108-1.9207,20.8349,20.8349,0,0,1,2.5053-1.7989c3.4731-1.8011,7.9535.449,11.5472-1.0294A12.01,12.01,0,0,0,16.8192,4.7994Z"/><path class="cls-4" d="M25.4968,25.1221a5.0639,5.0639,0,0,0-1.9887-1.2333c-1.8546-.5857-3.883.0751-5.8033-.2333-2.1768-.35-3.9478-1.8823-5.9378-2.8314A11.74,11.74,0,0,0,5.19,19.8113a11.9983,11.9983,0,0,0,20.3067,5.3108Z"/><path class="cls-5" d="M28.5676,14.2912c-2.141-.2562-5.1127,1.0723-6.9073,1.5037a6.933,6.933,0,0,0-2.0385.7225,2.3445,2.3445,0,0,0-1.1853,1.7241,2.4357,2.4357,0,0,0,1.9164,2.2942,8.731,8.731,0,0,0,3.2195.012,5.2036,5.2036,0,0,1,3.1578.4172,4.6445,4.6445,0,0,1,1.0081.8568,11.9153,11.9153,0,0,0,.8293-7.53Z"/><path class="cls-6" d="M18.682,26.036A11.9983,11.9983,0,0,1,7.83,8.8752,12.01,12.01,0,1,0,27.6859,21.96,11.9786,11.9786,0,0,1,18.682,26.036Z"/></g></g></svg>