<svg xmlns="http://www.w3.org/2000/svg" xmlns:xlink="http://www.w3.org/1999/xlink" viewBox="0 0 165.3371 108.3884"><defs><style>.cls-1{fill:#fff;opacity:0.12;}.cls-2{fill:url(#linear-gradient);}.cls-3{fill:url(#linear-gradient-2);}.cls-4{fill:url(#linear-gradient-3);}.cls-5{fill:url(#linear-gradient-4);}.cls-6{fill:url(#linear-gradient-5);}.cls-7{fill:url(#linear-gradient-6);}.cls-8{fill:#bf2640;opacity:0.4;}.cls-9{fill:url(#linear-gradient-7);}</style><linearGradient id="linear-gradient" x1="58.5868" y1="83.8293" x2="126.0288" y2="16.3873" gradientTransform="matrix(0.7012, 0.713, -0.713, 0.7012, 53.6742, -46.7548)" gradientUnits="userSpaceOnUse"><stop offset="0.0013" stop-color="#fc7674"/><stop offset="1" stop-color="#e03c50"/></linearGradient><linearGradient id="linear-gradient-2" x1="46.8937" y1="24.0414" x2="128.1218" y2="24.0414" gradientTransform="translate(-21.6774 42.2234) rotate(-21.9504)" gradientUnits="userSpaceOnUse"><stop offset="0" stop-color="#e03c50"/><stop offset="0.9987" stop-color="#fc7674"/></linearGradient><linearGradient id="linear-gradient-3" x1="44.6191" y1="42.1066" x2="138.2717" y2="42.1066" xlink:href="#linear-gradient-2"/><linearGradient id="linear-gradient-4" x1="50.465" y1="69.1095" x2="139.8166" y2="69.1095" xlink:href="#linear-gradient-2"/><linearGradient id="linear-gradient-5" x1="68.7409" y1="88.8886" x2="128.8388" y2="88.8886" xlink:href="#linear-gradient-2"/><linearGradient id="linear-gradient-6" x1="68.0336" y1="7.0501" x2="114.4458" y2="7.0501" xlink:href="#linear-gradient-2"/><linearGradient id="linear-gradient-7" x1="46.887" y1="95.5293" x2="137.7286" y2="4.6877" gradientTransform="translate(-21.6774 42.2234) rotate(-21.9504)" gradientUnits="userSpaceOnUse"><stop offset="0.0013" stop-color="#fccbd0"/><stop offset="1" stop-color="#e099b4"/></linearGradient></defs><g id="Layer_2" data-name="Layer 2"><g id="OBJECTS"><circle class="cls-1" cx="82.6685" cy="54.1942" r="54.1799" transform="translate(-2.5316 4.074) rotate(-2.7805)"/><circle class="cls-1" cx="82.6685" cy="54.1942" r="50.9285" transform="translate(-14.108 74.3286) rotate(-45)"/><circle class="cls-2" cx="82.6685" cy="54.1942" r="47.6883" transform="translate(0.8963 109.7316) rotate(-67.4305)"/><path class="cls-3" d="M95.8554,8.3773A42.2332,42.2332,0,0,1,84.0445,19.3146c-9.6463,6.0444-20.865,8.95-31.4774,13.0685A75.8322,75.8322,0,0,0,37.0655,40.272a47.571,47.571,0,0,0-1.9638,17.3867A41.7193,41.7193,0,0,1,49.05,42.7567c8.0251-5.363,17.229-8.6249,26.1822-12.2309s17.9386-7.73,24.9076-14.4078a37.2654,37.2654,0,0,0,3.9827-4.5009A47.9579,47.9579,0,0,0,95.8554,8.3773Z"/><path class="cls-4" d="M120.5509,25.229a47.3688,47.3688,0,0,0-7.1647-7.5135,45.106,45.106,0,0,1-10.984,13.74c-10.4356,8.7424-24.12,12.2478-36.8456,17.0852C54.5885,52.71,43.3729,58.7645,37.1633,68.4153c.3785,1.2068.7923,2.41,1.2732,3.6031a48.0343,48.0343,0,0,0,2.7758,5.7282,45.8718,45.8718,0,0,1,13.3246-11.361c9.3624-5.3952,19.9508-8.1821,30.1688-11.6969s20.493-8.0264,27.8215-15.9671A38.6976,38.6976,0,0,0,120.5509,25.229Z"/><path class="cls-5" d="M130.34,55.5269a47.3917,47.3917,0,0,0-2.1109-15.3787A42.8,42.8,0,0,1,115.4929,54.063c-9.748,6.71-21.7452,9.05-32.807,13.256a66.903,66.903,0,0,0-21.052,12.2335,43.7962,43.7962,0,0,0-9.2191,11.511A47.8537,47.8537,0,0,0,64.372,98.2243a67.5631,67.5631,0,0,1,11.04-9.4468c9.0268-6.1534,19.3768-10.0115,29.261-14.6647C114.3244,69.5691,123.8668,63.9789,130.34,55.5269Z"/><path class="cls-6" d="M122.6143,72.2044c-9.3976,5.1279-19.6348,8.6067-28.9354,13.9082-6.751,3.8483-13.1407,8.9364-17.3737,15.338a47.3484,47.3484,0,0,0,16.0105-.561,58.6016,58.6016,0,0,1,11.9608-8.6c4.7418-2.642,9.713-4.8445,14.6457-7.1184a47.8722,47.8722,0,0,0,9.0835-16.2105C126.25,70.125,124.4431,71.2065,122.6143,72.2044Z"/><path class="cls-7" d="M64.8443,9.9621a47.4542,47.4542,0,0,0-20.033,15.2357,35.8158,35.8158,0,0,1,4.9795-2.5671c5.4367-2.271,11.3225-3.1868,17.0718-4.4759S78.43,15.11,83.0639,11.4709a20.1041,20.1041,0,0,0,4.3495-4.7265A47.4654,47.4654,0,0,0,64.8443,9.9621Z"/><path class="cls-8" d="M90,90.7539a47.5926,47.5926,0,0,1-43.0467-68.07,47.6371,47.6371,0,1,0,78.7615,51.9031A47.5133,47.5133,0,0,1,90,90.7539Z"/><path class="cls-9" d="M117.9958,22.1459a47.37,47.37,0,0,1,5.9228,8.1269c11.8947-2.9267,19.75-3.5113,20.7384-1.0582,1.974,4.8988-24.1789,20.0538-58.4141,33.85S22.6541,84.0724,20.68,79.1737c-.9886-2.4531,5.0771-7.4783,15.6777-13.6165a47.37,47.37,0,0,1-1.3669-9.9628C11.7964,68.5179-2.32,80.8436.3145,87.38c3.948,9.7971,44.02,2.8812,89.5024-15.447s79.1536-41.1283,75.2056-50.9255C162.3884,14.4711,143.67,15.3766,117.9958,22.1459Z"/></g></g></svg>