<svg xmlns="http://www.w3.org/2000/svg" xmlns:xlink="http://www.w3.org/1999/xlink" viewBox="0 0 355.5746 355.5746"><defs><style>.cls-1{fill:#fff;opacity:0.12;}.cls-2{fill:url(#linear-gradient);}.cls-3{fill:url(#linear-gradient-2);}.cls-4{fill:url(#linear-gradient-3);}.cls-5{fill:url(#linear-gradient-4);}.cls-6{fill:url(#linear-gradient-5);}.cls-7{fill:url(#linear-gradient-6);}.cls-8{fill:url(#linear-gradient-7);}.cls-9{fill:url(#linear-gradient-8);}.cls-10{fill:url(#linear-gradient-9);}.cls-11{fill:url(#linear-gradient-10);}</style><linearGradient id="linear-gradient" x1="113.0077" y1="276.4083" x2="310.2496" y2="79.1663" gradientUnits="userSpaceOnUse"><stop offset="0" stop-color="#e7b142"/><stop offset="1" stop-color="#f7ea3a"/></linearGradient><linearGradient id="linear-gradient-2" x1="259.2524" y1="194.4591" x2="259.2524" y2="14.3867" xlink:href="#linear-gradient"/><linearGradient id="linear-gradient-3" x1="177.7873" y1="75.4105" x2="335.2488" y2="75.4105" xlink:href="#linear-gradient"/><linearGradient id="linear-gradient-4" x1="253.0029" y1="341.1879" x2="253.0029" y2="229.5169" xlink:href="#linear-gradient"/><linearGradient id="linear-gradient-5" x1="245.2253" y1="341.1879" x2="245.2253" y2="270.0247" gradientUnits="userSpaceOnUse"><stop offset="0" stop-color="#f7ea3a"/><stop offset="1" stop-color="#e7b142"/></linearGradient><linearGradient id="linear-gradient-6" x1="290.795" y1="276.4083" x2="488.0369" y2="79.1663" gradientTransform="matrix(-1, 0, 0, 1, 533.3619, 0)" xlink:href="#linear-gradient"/><linearGradient id="linear-gradient-7" x1="437.0397" y1="194.4591" x2="437.0397" y2="14.3867" gradientTransform="matrix(-1, 0, 0, 1, 533.3619, 0)" xlink:href="#linear-gradient"/><linearGradient id="linear-gradient-8" x1="355.5746" y1="75.4105" x2="513.0361" y2="75.4105" gradientTransform="matrix(-1, 0, 0, 1, 533.3619, 0)" xlink:href="#linear-gradient"/><linearGradient id="linear-gradient-9" x1="430.7902" y1="341.1879" x2="430.7902" y2="229.5169" gradientTransform="matrix(-1, 0, 0, 1, 533.3619, 0)" xlink:href="#linear-gradient"/><linearGradient id="linear-gradient-10" x1="423.0126" y1="341.1879" x2="423.0126" y2="270.0247" gradientTransform="matrix(-1, 0, 0, 1, 533.3619, 0)" xlink:href="#linear-gradient-5"/></defs><g id="Layer_2" data-name="Layer 2"><g id="OBJECTS"><path class="cls-1" d="M177.7873,355.5746A177.7873,177.7873,0,0,0,177.7873,0Z"/><path class="cls-1" d="M177.7873,348.3812a170.5939,170.5939,0,0,0,0-341.1878Z"/><path class="cls-2" d="M177.7873,341.1879a163.4006,163.4006,0,0,0,0-326.8012Z"/><path class="cls-3" d="M340.7175,165.3114a163.4126,163.4126,0,0,0-162.93-150.9247v106.02c.492,3.4573.9575,6.914,1.4791,10.3295,2.637,17.2683,7.3867,34.9772,18.9356,48.0833s31.4651,20.169,47.1214,12.4212c13.9474-6.9021,21.3414-23.3336,35.4308-29.9411C298.9724,152.7556,320.7992,163.5083,340.7175,165.3114Z"/><path class="cls-4" d="M335.2488,134.0141A163.4646,163.4646,0,0,0,177.7873,14.3867V75.2139a55.5,55.5,0,0,0,8.4083,1.224c13.1836.868,26.5323-2.8215,39.5427-.5219,19.0594,3.3688,33.3912,18.6211,46.9,32.4823s29.6565,28.0035,49.0113,28.036A40.0024,40.0024,0,0,0,335.2488,134.0141Z"/><path class="cls-5" d="M328.2185,241.6842a58.2541,58.2541,0,0,0-17.4415,1.1591c-20.8278,4.6441-41.2761,20.4485-61.2965,13.0626-11.4491-4.2238-19.06-15.153-29.7094-21.1116-11.9658-6.6951-26.8348-6.4543-39.9429-2.4317-.6847.21-1.3635.4348-2.0409.6631V341.1879A163.4424,163.4424,0,0,0,328.2185,241.6842Z"/><path class="cls-6" d="M312.6633,270.0467a43.0337,43.0337,0,0,0-16.089,2.5037c-16.4448,5.9915-29.12,21.2954-46.4638,23.6429-12.1616,1.6461-24.1135-3.49-36.2808-5.094a64.2185,64.2185,0,0,0-36.0424,5.97v44.1186A163.2194,163.2194,0,0,0,312.6633,270.0467Z"/><path class="cls-1" d="M177.7873,355.5746A177.7873,177.7873,0,0,1,177.7873,0Z"/><path class="cls-1" d="M177.7873,348.3812a170.5939,170.5939,0,0,1,0-341.1878Z"/><path class="cls-7" d="M177.7873,341.1879a163.4006,163.4006,0,0,1,0-326.8012Z"/><path class="cls-8" d="M14.8571,165.3114a163.4126,163.4126,0,0,1,162.93-150.9247v106.02c-.492,3.4573-.9575,6.914-1.4791,10.3295-2.6371,17.2683-7.3867,34.9772-18.9356,48.0833s-31.4651,20.169-47.1214,12.4212C96.3038,184.3386,88.91,167.9071,74.82,161.3,56.6022,152.7556,34.7754,163.5083,14.8571,165.3114Z"/><path class="cls-9" d="M20.3258,134.0141A163.4646,163.4646,0,0,1,177.7873,14.3867V75.2139a55.5019,55.5019,0,0,1-8.4083,1.224c-13.1836.868-26.5323-2.8215-39.5427-.5219-19.0594,3.3688-33.3912,18.6211-46.9,32.4823S53.28,136.4018,33.9254,136.4343A40.0024,40.0024,0,0,1,20.3258,134.0141Z"/><path class="cls-10" d="M27.3561,241.6842a58.2541,58.2541,0,0,1,17.4415,1.1591c20.8278,4.6441,41.2761,20.4485,61.2965,13.0626,11.4491-4.2238,19.06-15.153,29.7094-21.1116,11.9658-6.6951,26.8348-6.4543,39.9429-2.4317.6847.21,1.3635.4348,2.0409.6631V341.1879A163.4424,163.4424,0,0,1,27.3561,241.6842Z"/><path class="cls-11" d="M42.9113,270.0467A43.0337,43.0337,0,0,1,59,272.55c16.4448,5.9915,29.12,21.2954,46.4638,23.6429,12.1616,1.6461,24.1135-3.49,36.2808-5.094a64.2185,64.2185,0,0,1,36.0424,5.97v44.1186A163.2194,163.2194,0,0,1,42.9113,270.0467Z"/></g></g></svg>