<svg xmlns="http://www.w3.org/2000/svg" xmlns:xlink="http://www.w3.org/1999/xlink" viewBox="0 0 39.0669 39.0668"><defs><style>.cls-1{fill:#fff;opacity:0.12;}.cls-2{fill:url(#linear-gradient);}.cls-3{fill:url(#linear-gradient-2);}.cls-4{fill:url(#linear-gradient-3);}.cls-5{fill:url(#linear-gradient-4);}.cls-6{fill:#38619e;opacity:0.4;}</style><linearGradient id="linear-gradient" x1="9.1149" y1="29.9519" x2="29.952" y2="9.1149" gradientUnits="userSpaceOnUse"><stop offset="0" stop-color="#55cdef"/><stop offset="1" stop-color="#4570b4"/></linearGradient><linearGradient id="linear-gradient-2" x1="4.8954" y1="27.6424" x2="26.0088" y2="27.6424" gradientUnits="userSpaceOnUse"><stop offset="0" stop-color="#4570b4"/><stop offset="1" stop-color="#55cdef"/></linearGradient><linearGradient id="linear-gradient-3" x1="5.1831" y1="13.5683" x2="32.2136" y2="13.5683" xlink:href="#linear-gradient-2"/><linearGradient id="linear-gradient-4" x1="26.0174" y1="23.7694" x2="34.2675" y2="23.7694" xlink:href="#linear-gradient"/></defs><g id="Layer_2" data-name="Layer 2"><g id="OBJECTS"><circle class="cls-1" cx="19.5334" cy="19.5334" r="19.5334"/><circle class="cls-1" cx="19.5334" cy="19.5334" r="17.1337"/><circle class="cls-2" cx="19.5334" cy="19.5334" r="14.734"/><path class="cls-3" d="M4.8954,21.1705A14.7021,14.7021,0,0,0,26.0088,32.7529C23.13,31.3871,19.4981,31.5192,16.87,29.64c-2.8908-2.0672-3.9593-6.1551-7.0831-7.85A7.4357,7.4357,0,0,0,4.8954,21.1705Z"/><path class="cls-4" d="M32.2136,12.0566a14.7152,14.7152,0,0,0-27.03,4.1791,6.493,6.493,0,0,1,2.9538.2408c2.347.7811,4.219,2.5292,6.2654,3.9185s4.6123,2.4669,6.9545,1.6715A9.7984,9.7984,0,0,0,24.8622,19.53l5.15-5.0488A19.6741,19.6741,0,0,0,32.2136,12.0566Z"/><path class="cls-5" d="M26.0671,26.2546c.2905,1.7934,1.8,3.0865,3.0081,4.4432.0082.0092.0157.02.0239.0293a14.6343,14.6343,0,0,0,4.9068-13.9155c-1.6365,1.1467-3.2579,2.3158-4.78,3.6091C27.4605,21.92,25.6967,23.9683,26.0671,26.2546Z"/><path class="cls-6" d="M21.7986,30.8282A14.7036,14.7036,0,0,1,8.5,9.7984,14.7172,14.7172,0,1,0,32.8325,25.8336,14.6794,14.6794,0,0,1,21.7986,30.8282Z"/></g></g></svg>