<svg xmlns="http://www.w3.org/2000/svg" xmlns:xlink="http://www.w3.org/1999/xlink" viewBox="0 0 48.088 48.088"><defs><style>.cls-1{fill:#fff;opacity:0.12;}.cls-2{fill:url(#linear-gradient);}.cls-3{fill:url(#linear-gradient-2);}.cls-4{fill:url(#linear-gradient-3);}.cls-5{fill:#c66014;opacity:0.4;}</style><linearGradient id="linear-gradient" x1="10.4303" y1="37.6577" x2="37.6577" y2="10.4303" gradientUnits="userSpaceOnUse"><stop offset="0" stop-color="#edb167"/><stop offset="1" stop-color="#dc721b"/></linearGradient><linearGradient id="linear-gradient-2" x1="9.1449" y1="29.7551" x2="43.2967" y2="29.7551" gradientUnits="userSpaceOnUse"><stop offset="0.0014" stop-color="#dc721b"/><stop offset="1" stop-color="#edb167"/></linearGradient><linearGradient id="linear-gradient-3" x1="7.4415" y1="9.9013" x2="27.2431" y2="9.9013" gradientUnits="userSpaceOnUse"><stop offset="0" stop-color="#dc721b"/><stop offset="1" stop-color="#edb167"/></linearGradient></defs><g id="Layer_2" data-name="Layer 2"><g id="OBJECTS"><circle class="cls-1" cx="24.044" cy="24.044" r="24.044"/><circle class="cls-1" cx="24.044" cy="24.044" r="21.6524" transform="translate(-7.3001 10.8617) rotate(-22.19)"/><circle class="cls-2" cx="24.044" cy="24.044" r="19.2527"/><path class="cls-3" d="M42.1305,17.4971c-.203.11-.4085.2168-.6022.339A25.9606,25.9606,0,0,0,35.67,23.6434a21.8917,21.8917,0,0,1-6.0183,5.62c-2.5288,1.39-5.4749,1.7649-8.3445,2.07s-5.8106.5848-8.42,1.8179a9.7672,9.7672,0,0,0-3.7428,3.0815,19.282,19.282,0,0,0,8.0315,5.78A14.4646,14.4646,0,0,1,27.887,35.705c2.1735-.1479,4.4689.19,6.4467-.7236,1.9929-.9207,3.2246-2.9086,4.7127-4.5226a15.7145,15.7145,0,0,1,3.9405-3.0672,18.7143,18.7143,0,0,0-.8564-9.8945Z"/><path class="cls-4" d="M24.044,4.7913A19.2267,19.2267,0,0,0,7.4415,14.33c.2011.0978.4063.1874.6165.2661a6.1208,6.1208,0,0,0,5.339-.4266c2.35-1.4847,3.2885-4.648,5.7388-5.9612C21.2027,7.1,23.8681,7.5869,25.887,6.3939a4.2624,4.2624,0,0,0,1.3561-1.3154A19.2931,19.2931,0,0,0,24.044,4.7913Z"/><path class="cls-5" d="M27.0048,38.8071A19.2186,19.2186,0,0,1,9.6219,11.32a19.2365,19.2365,0,1,0,31.805,20.9592A19.1865,19.1865,0,0,1,27.0048,38.8071Z"/></g></g></svg>